<?xml version="1.0" encoding="UTF-8" standalone="no"?>
<!DOCTYPE svg PUBLIC "-//W3C//DTD SVG 1.1//EN" "http://www.w3.org/Graphics/SVG/1.1/DTD/svg11.dtd">
<svg width="100%" height="100%" viewBox="0 0 1153 1817" version="1.1" xmlns="http://www.w3.org/2000/svg" xmlns:xlink="http://www.w3.org/1999/xlink" xml:space="preserve" xmlns:serif="http://www.serif.com/" style="fill-rule:evenodd;clip-rule:evenodd;stroke-linecap:round;stroke-linejoin:round;stroke-miterlimit:1.5;">
    <g transform="matrix(1,0,0,1,-631.479,-822.85)">
        <g transform="matrix(-45.4543,0,0,45.4543,72073.7,-52740.3)">
            <g id="finalboss-jfortega">
                <g id="piernas">
                    <g id="pantalones" transform="matrix(0.925642,0,0,0.947495,116.221,63.2163)">
                        <path d="M1550.96,1211.27C1551.07,1211.26 1550.91,1213.25 1551.74,1214.95C1552.34,1216.16 1552.66,1217.14 1552.73,1217.23C1555.53,1217.23 1556.75,1217.31 1556.75,1217.31C1556.75,1217.31 1556.61,1217.69 1557.35,1215.67L1563.13,1215.56L1563.23,1217.15L1566.43,1217.15C1566.66,1216.83 1567.24,1216.08 1567.83,1214.68C1568.22,1213.73 1568.13,1212.82 1568.42,1211.19C1562.43,1214.45 1557.2,1214.47 1550.96,1211.27Z" style="fill:rgb(41,79,114);stroke:black;stroke-width:0.18px;"/>
                    </g>
                    <g id="zapatos">
                        <g id="zapato-izq">
                            <path id="zapato" d="M1557.42,1217.04C1557.42,1216.83 1557.25,1216.66 1557.03,1216.66L1553.82,1216.66C1553.6,1216.66 1553.43,1216.83 1553.43,1217.04L1553.43,1217.81C1553.43,1218.03 1553.6,1218.2 1553.82,1218.2L1557.03,1218.2C1557.25,1218.2 1557.42,1218.03 1557.42,1217.81L1557.42,1217.04Z" style="fill:rgb(2,2,2);stroke:black;stroke-width:0.34px;"/>
                            <g id="cordon" transform="matrix(0.819232,-0.573462,0.573462,0.819232,-395.551,1108.58)">
                                <path d="M1534.98,1206.96L1537.17,1208.5" style="fill:none;stroke:white;stroke-width:0.34px;"/>
                            </g>
                        </g>
                        <g id="zapato-dcho" transform="matrix(1,0,0,1,9.2708,-0.153236)">
                            <path id="zapato1" serif:id="zapato" d="M1557.42,1217.04C1557.42,1216.83 1557.25,1216.66 1557.03,1216.66L1553.82,1216.66C1553.6,1216.66 1553.43,1216.83 1553.43,1217.04L1553.43,1217.81C1553.43,1218.03 1553.6,1218.2 1553.82,1218.2L1557.03,1218.2C1557.25,1218.2 1557.42,1218.03 1557.42,1217.81L1557.42,1217.04Z" style="fill:rgb(2,2,2);stroke:black;stroke-width:0.34px;"/>
                            <g id="cordon1" serif:id="cordon" transform="matrix(0.819232,-0.573462,0.573462,0.819232,-395.551,1108.58)">
                                <path d="M1534.98,1206.96L1537.17,1208.5" style="fill:none;stroke:white;stroke-width:0.34px;"/>
                            </g>
                        </g>
                    </g>
                    <path id="agujero" d="M1554.08,1215.09L1554.53,1213.8L1554.94,1214.12L1555.28,1213.75L1555.13,1215.22L1554.7,1214.66L1554.08,1215.09Z" style="fill:rgb(225,137,104);stroke:black;stroke-width:0.17px;"/>
                </g>
                <g id="torso">
                    <g id="brazo-dcho" transform="matrix(1,0,0,1,-0.319241,-0.319241)">
                        <g id="cadena">
                            <g transform="matrix(0.0639201,0.289069,-0.256287,0.0566712,1776.83,686.04)">
                                <path d="M1590.47,1197.98C1590.47,1197.23 1589.93,1196.62 1589.27,1196.62L1582.58,1196.62C1581.91,1196.62 1581.38,1197.23 1581.38,1197.98L1581.38,1200.69C1581.38,1201.44 1581.91,1202.05 1582.58,1202.05L1589.27,1202.05C1589.93,1202.05 1590.47,1201.44 1590.47,1200.69L1590.47,1197.98Z" style="fill:rgb(255,78,0);fill-opacity:0;stroke:black;stroke-width:1.8px;stroke-linecap:square;"/>
                            </g>
                            <g transform="matrix(-0.025297,0.294969,-0.261518,-0.0224281,1924.78,775.262)">
                                <path d="M1590.47,1197.98C1590.47,1197.23 1589.93,1196.62 1589.27,1196.62L1582.58,1196.62C1581.91,1196.62 1581.38,1197.23 1581.38,1197.98L1581.38,1200.69C1581.38,1201.44 1581.91,1202.05 1582.58,1202.05L1589.27,1202.05C1589.93,1202.05 1590.47,1201.44 1590.47,1200.69L1590.47,1197.98Z" style="fill:rgb(255,78,0);fill-opacity:0;stroke:black;stroke-width:1.8px;stroke-linecap:square;"/>
                            </g>
                            <g transform="matrix(0.305437,0.952212,-0.952212,0.305437,2228.49,-668.147)">
                                <path d="M1587.53,1200.59L1589.29,1200.59" style="fill:none;stroke:black;stroke-width:0.5px;stroke-linecap:square;"/>
                            </g>
                            <g transform="matrix(-0.0304299,0.999537,-0.999537,-0.0304299,2819.51,-336.914)">
                                <path d="M1587.53,1200.59L1589.29,1200.59" style="fill:none;stroke:black;stroke-width:0.5px;stroke-linecap:square;"/>
                            </g>
                            <g transform="matrix(0.268562,0.124584,-0.110456,0.238105,1275.65,726.339)">
                                <path d="M1590.47,1197.98C1590.47,1197.23 1589.93,1196.62 1589.27,1196.62L1582.58,1196.62C1581.91,1196.62 1581.38,1197.23 1581.38,1197.98L1581.38,1200.69C1581.38,1201.44 1581.91,1202.05 1582.58,1202.05L1589.27,1202.05C1589.93,1202.05 1590.47,1201.44 1590.47,1200.69L1590.47,1197.98Z" style="fill:rgb(255,78,0);fill-opacity:0;stroke:black;stroke-width:1.8px;stroke-linecap:square;"/>
                            </g>
                        </g>
                        <g id="brazo-dcho1" serif:id="brazo-dcho" transform="matrix(0.987082,-0.160214,0.160214,0.987082,-173.445,266.901)">
                            <path d="M1569.49,1199.96C1569.49,1199.96 1570.35,1204.87 1569.62,1208.71C1569.62,1208.71 1570.15,1209.35 1570.11,1209.71C1570.09,1209.86 1569.97,1210.37 1569.78,1210.54C1569.52,1210.76 1569.1,1210.82 1568.87,1210.81C1568.69,1210.81 1568.01,1210.83 1567.73,1210.57C1567.41,1210.27 1567.51,1209.68 1567.56,1209.49C1567.64,1209.17 1568.23,1208.83 1568.23,1208.83L1569.49,1199.96Z" style="fill:rgb(225,137,104);stroke:black;stroke-width:0.17px;"/>
                        </g>
                    </g>
                    <g id="bajacamisa" transform="matrix(0.854733,0,0,0.764869,227.216,285.149)">
                        <path d="M1549.38,1207.86C1549.38,1207.86 1550.18,1208.42 1551.67,1209.04C1552.62,1209.43 1553.83,1209.85 1555.3,1210.16C1556.49,1210.42 1557.86,1210.61 1559.37,1210.67C1562.86,1210.79 1565.01,1210.25 1566.84,1209.01C1567.54,1208.53 1568.19,1207.95 1568.86,1207.27L1568.99,1210.7C1569.38,1210.7 1559.64,1217.03 1549.43,1210.7C1549.43,1210.38 1549.43,1210.09 1549.42,1209.84C1549.42,1207.89 1549.38,1207.86 1549.38,1207.86Z" style="fill:rgb(116,0,0);stroke:black;stroke-width:0.21px;"/>
                    </g>
                    <path id="base-cami" d="M1550.94,1198.77L1551.18,1209.8C1551.18,1209.8 1556.09,1212.26 1559.28,1212.26C1562.46,1212.26 1568.35,1209.41 1568.35,1209.41L1568.15,1199.11L1550.94,1198.77Z" style="fill:rgb(29,66,138);stroke:black;stroke-width:0.34px;"/>
                    <g id="brazo" transform="matrix(1.02537,0.272984,-0.258424,0.970681,274.857,-386.164)">
                        <path d="M1546.07,1199.82C1546.07,1199.82 1546.56,1199.46 1547.27,1199.52C1547.74,1199.57 1549.29,1200.1 1549.19,1200.35C1548.42,1202.38 1549.24,1205.8 1551.42,1205.19L1551.42,1208.12C1551.85,1208.16 1545.41,1208.72 1546.07,1199.82Z" style="fill:rgb(225,137,104);stroke:black;stroke-width:0.16px;"/>
                    </g>
                    <path id="hombro" d="M1553.19,1202.5C1553.19,1202.5 1552.22,1201.76 1551.09,1201.47C1549.96,1201.17 1549.22,1201.12 1549.22,1201.12C1549.22,1201.12 1551.03,1199.49 1551.82,1199.8C1553.83,1200.59 1553.19,1202.5 1553.19,1202.5Z" style="fill:rgb(29,66,138);stroke:black;stroke-width:0.34px;"/>
                    <g id="hombro1" serif:id="hombro" transform="matrix(1,0,0,1,-0.0798103,1.19715)">
                        <path d="M1568.2,1202.48L1569.03,1201.96C1569.03,1201.96 1568.95,1200.67 1568.41,1200.62C1567.87,1200.57 1568.2,1202.48 1568.2,1202.48Z" style="fill:rgb(29,66,138);stroke:black;stroke-width:0.34px;"/>
                    </g>
                    <g id="logo-nba" transform="matrix(0.0146882,0,0,0.0146882,1539.63,1198.24)">
                        <path id="soporte" d="M1334.17,710.906L1334.17,756.518L1354.06,765.514L1351.69,716.745L1334.17,710.906Z" style="fill:rgb(253,185,39);"/>
                        <path id="frame-puente" d="M1235.26,621.103L1233.93,612.119C1237,609.853 1251.26,596.798 1264.42,580.191C1284.67,554.659 1306.9,518.827 1312.13,509.226L1312.13,494.168L1316.07,491.811L1316.07,487.232L1326.31,484.605L1326.31,497.737L1334.32,497.737L1334.32,485.279L1343.95,487.501L1343.95,509.858C1343.95,509.858 1401.01,566.376 1436.15,587.857C1453.7,598.582 1483.03,616.435 1512.82,630.211C1553.96,649.239 1594.66,663.094 1594.66,663.094L1590.31,675.951C1590.31,675.951 1547.17,660.448 1510.74,641.902C1482.68,627.616 1463.96,617.739 1447.19,607.416C1429.3,596.405 1401.78,575.637 1381.88,558.397C1360.35,539.747 1343.46,521.707 1343.46,521.707L1350.32,684.584L1590.31,675.951L1576.01,697.656L1351.15,696.014L1351.15,697.839L1572.2,702.427L1559.19,716.939L1326.18,708.8L1326.18,752.149L1304.4,734.644L1306.53,707.729L1275.9,706.97L1261.4,687.066L1307.84,685.939L1312.78,517.202C1312.78,517.202 1298.58,544.69 1286.85,562C1283.2,567.372 1269.88,585.732 1263.25,593.425C1247.42,611.793 1235.26,621.103 1235.26,621.103Z" style="fill:rgb(253,185,39);"/>
                        <g id="vigas-dcha">
                            <path id="viga" d="M1568.35,677.089L1562.62,664.689L1554.91,661.494L1562.15,677.277L1568.35,677.089Z" style="fill:rgb(253,185,39);"/>
                            <g id="viga1" serif:id="viga" transform="matrix(1,0,0,1,-50.4587,2.29358)">
                                <path d="M1568.35,677.089L1550.69,633.725L1542.76,628.467L1561.87,677.559L1568.35,677.089Z" style="fill:rgb(253,185,39);"/>
                            </g>
                            <g id="viga2" serif:id="viga" transform="matrix(1,0,0,1,-76.1468,3.66972)">
                                <path d="M1568.35,677.089L1546.29,616.248L1538.77,611.77L1562.15,677.277L1568.35,677.089Z" style="fill:rgb(253,185,39);"/>
                            </g>
                            <g id="viga3" serif:id="viga" transform="matrix(1,0,0,1,-99.7706,4.58716)">
                                <path d="M1568.35,677.089L1540.23,595.881L1532.53,591.219L1562.15,677.094L1568.35,677.089Z" style="fill:rgb(253,185,39);"/>
                            </g>
                            <g id="viga4" serif:id="viga" transform="matrix(1,0,0,1,-123.853,5.27523)">
                                <path d="M1567.25,677.273L1535.64,575.698L1527.57,570.485L1561.41,677.828L1567.25,677.273Z" style="fill:rgb(253,185,39);"/>
                            </g>
                            <g id="viga5" serif:id="viga" transform="matrix(1,0,0,1,-147.706,6.65138)">
                                <path d="M1568.35,677.089L1530.14,549.644L1522.25,544.08L1561.23,677.277L1568.35,677.089Z" style="fill:rgb(253,185,39);"/>
                            </g>
                            <g id="viga6" serif:id="viga" transform="matrix(1,0,0,1,-173.394,7.33945)">
                                <path d="M1568.35,677.089L1522.98,518.267L1514.73,510.669L1562.15,677.277L1568.35,677.089Z" style="fill:rgb(253,185,39);"/>
                            </g>
                            <g id="viga7" serif:id="viga" transform="matrix(1,0,0,1,-195.872,8.02752)">
                                <path d="M1566.51,677.089L1541.33,579.918L1534.91,578.926L1561.05,677.828L1566.51,677.089Z" style="fill:rgb(253,185,39);"/>
                            </g>
                            <g id="viga8" serif:id="viga" transform="matrix(1.7512,0,0,1.98819,-1199.25,-667.442)">
                                <path d="M1565.94,677.182L1559.39,663.328L1554.91,661.494L1562.15,677.277L1565.94,677.182Z" style="fill:rgb(253,185,39);"/>
                            </g>
                        </g>
                        <g id="vigas-izq">
                            <path id="viga9" serif:id="viga" d="M1291.24,687.198L1311.6,610.493L1311.29,589.344L1285.41,687.49L1291.24,687.198Z" style="fill:rgb(253,185,39);"/>
                            <g id="viga10" serif:id="viga" transform="matrix(1,0,0,1,-21.9382,1.26263)">
                                <path d="M1289.75,687.258L1338.98,510.864L1330.77,517.335L1283.93,687.49L1289.75,687.258Z" style="fill:rgb(253,185,39);"/>
                            </g>
                            <g id="viga11" serif:id="viga" transform="matrix(1,0,0,1,-46.2439,-3.31441)">
                                <path d="M1292.23,677.087L1322.45,575.968L1312.52,588.851L1288.62,668.501L1292.23,677.087Z" style="fill:rgb(253,185,39);"/>
                            </g>
                        </g>
                        <g id="espacios">
                            <rect id="espacio-6-logo" x="1326.12" y="520.66" width="7.997" height="7.155" style="fill:rgb(29,66,138);"/>
                            <rect id="espacio-5-logo" x="1326.17" y="538.817" width="7.816" height="11.784" style="fill:rgb(29,66,138);"/>
                            <rect id="espacio-4-logo" x="1326.09" y="561.268" width="8.057" height="11.604" style="fill:rgb(29,66,138);"/>
                            <rect id="espacio-3-logo" x="1326.15" y="583.695" width="8.057" height="21.825" style="fill:rgb(29,66,138);"/>
                            <rect id="espacio-2-logo" x="1326.21" y="616.342" width="7.876" height="22.306" style="fill:rgb(29,66,138);"/>
                            <rect id="espacio-1-logo" x="1326.09" y="649.591" width="8.057" height="35.353" style="fill:rgb(29,66,138);"/>
                            <g id="borde-logo" transform="matrix(1.06653,0,0,1.99225,-85.3952,-390.586)">
                                <path d="M1413.22,388.897C1517.27,388.897 1601.76,434.211 1601.76,490.025C1601.76,545.84 1517.27,591.154 1413.22,591.154C1309.16,591.154 1224.68,545.84 1224.68,490.025C1224.68,434.211 1309.16,388.897 1413.22,388.897ZM1413.22,394.965C1511.03,394.965 1590.44,437.56 1590.44,490.025C1590.44,542.491 1511.03,585.086 1413.22,585.086C1315.4,585.086 1235.99,542.491 1235.99,490.025C1235.99,437.56 1315.4,394.965 1413.22,394.965Z" style="fill:rgb(253,185,39);"/>
                            </g>
                        </g>
                    </g>
                </g>
                <g id="cabeza" transform="matrix(1,0,0,1,0.399052,2.07507)">
                    <path id="craneo" d="M1549.91,1180.52C1549.91,1180.52 1551.78,1175.61 1558.62,1176.52C1565.46,1177.42 1568.5,1179.42 1568.88,1182.1C1569.27,1184.78 1569.88,1190.02 1569.88,1190.02C1569.82,1191.38 1564.71,1192.17 1558.3,1191.61C1550.04,1190.88 1546.38,1186.19 1549.91,1180.52Z" style="fill:rgb(225,137,104);stroke:black;stroke-width:0.17px;"/>
                    <g id="ojo-izquierdo">
                        <path id="ojo-izq" d="M1556.31,1186.18L1562.72,1186.18C1562.72,1186.18 1559.73,1189.86 1556.31,1186.18Z" style="fill:white;stroke:black;stroke-width:0.17px;"/>
                        <g id="pupila-izq" transform="matrix(1,0,0,0.973251,0,31.7516)">
                            <ellipse cx="1559.2" cy="1186.59" rx="0.449" ry="0.415" style="stroke:black;stroke-width:0.17px;"/>
                        </g>
                    </g>
                    <g id="ojo-derecho">
                        <g id="ojo-dcho" transform="matrix(0.911065,0,0,1,146.26,0)">
                            <path d="M1562.22,1186.68C1561.24,1187.54 1558.89,1188.96 1556.31,1186.18L1562.12,1186.18M1562.12,1186.18L1562.72,1186.18C1562.72,1186.18 1562.54,1186.4 1562.22,1186.68" style="fill:white;stroke:black;stroke-width:0.18px;"/>
                        </g>
                        <g id="pupila-dcha" transform="matrix(1,0,0,0.973251,7.82939,31.7516)">
                            <ellipse cx="1559.2" cy="1186.59" rx="0.449" ry="0.415" style="stroke:black;stroke-width:0.17px;"/>
                        </g>
                    </g>
                    <path id="nariz" d="M1563.58,1186.5L1563.87,1190.67L1562.2,1190.84" style="fill:none;stroke:black;stroke-width:0.17px;"/>
                    <g id="barba">
                        <path id="barba1" serif:id="barba" d="M1566.88,1191.21C1567.81,1191.12 1569.39,1190.27 1569.83,1190.03C1569.9,1189.98 1569.95,1189.91 1569.95,1189.96C1569.88,1190.81 1569.43,1193.89 1569.41,1195.15C1569.39,1195.95 1569.43,1197.63 1569.49,1198.35C1569.54,1199.01 1569.34,1199.88 1568.7,1200.33C1567.42,1201.25 1562.16,1203.01 1562.2,1203.15C1556.5,1203.29 1550.64,1199.72 1549.45,1195.93C1548.74,1193.69 1547.78,1189.89 1547.97,1187.53C1548.17,1185.02 1548.85,1182.72 1548.69,1182.9C1550.09,1184.25 1554.05,1191.32 1557.96,1191.15C1557.96,1191.15 1564.88,1191.41 1566.88,1191.21Z" style="fill:rgb(24,24,24);"/>
                        <path d="M1553,1188.29C1552.7,1192.2 1554.1,1196.43 1555.31,1201.02C1556.34,1202.47 1559.3,1203.68 1563.1,1203.65C1567.75,1202.4 1568.32,1199.7 1568.06,1196.48L1568.01,1190.91C1568.01,1190.91 1565.8,1191.21 1562.18,1191.15C1557.79,1191.08 1553.56,1188.06 1553,1188.29Z" style="fill:rgb(147,147,147);"/>
                        <g id="oreja" transform="matrix(0.672545,-0.15704,0.15704,0.672545,326.422,624.558)">
                            <path d="M1540.94,1194.29L1540.02,1198.09C1539.22,1198.82 1533.4,1197.7 1534.81,1194.17C1536.69,1189.88 1538.74,1189.92 1540.94,1194.29Z" style="fill:rgb(225,137,104);stroke:black;stroke-width:0.49px;"/>
                            <path d="M1539.04,1195.7C1539.04,1195.7 1538.98,1193.06 1537.75,1192.88" style="fill:rgb(225,137,104);stroke:black;stroke-width:0.49px;"/>
                            <path d="M1536.65,1193.68C1536.65,1193.68 1538.06,1193.31 1538.55,1193.74" style="fill:rgb(225,137,104);stroke:black;stroke-width:0.49px;"/>
                        </g>
                        <path id="boca" d="M1565.02,1193.69C1563.79,1193.37 1562.44,1193.33 1560.92,1193.69" style="fill:none;stroke:black;stroke-width:0.34px;"/>
                        <g id="pelito" transform="matrix(1,0,0,1,-0.399052,-2.07507)">
                            <path d="M1562.68,1201.02C1562.68,1201.02 1562.06,1202.52 1561.49,1202.83" style="fill:none;stroke:black;stroke-width:0.17px;"/>
                        </g>
                        <g id="pelito1" serif:id="pelito" transform="matrix(1,0,0,1,-0.399052,-2.07507)">
                            <path d="M1563.87,1201.74L1564.23,1203.09" style="fill:none;stroke:black;stroke-width:0.17px;"/>
                        </g>
                        <g id="pelito2" serif:id="pelito" transform="matrix(1,0,0,1,-0.399052,-2.07507)">
                            <path d="M1564.9,1201.17L1565.89,1201.59" style="fill:none;stroke:black;stroke-width:0.17px;"/>
                        </g>
                        <g id="pelito3" serif:id="pelito" transform="matrix(1,0,0,1,-0.399052,-2.07507)">
                            <path d="M1569.95,1195.36L1570.42,1195.1" style="fill:none;stroke:black;stroke-width:0.17px;"/>
                        </g>
                        <g id="pelito4" serif:id="pelito" transform="matrix(1,0,0,1,-0.399052,-2.07507)">
                            <path d="M1569.89,1195.79L1570.31,1195.87" style="fill:none;stroke:black;stroke-width:0.17px;"/>
                        </g>
                    </g>
                    <g id="brazo-izquierdo" transform="matrix(1.32313,0.352258,-0.33347,1.25256,-96.7794,-851.44)">
                        <g id="vaper" transform="matrix(0.13453,0,0,0.0878645,1381.08,1107.36)">
                            <path id="cuerpo-vaper" d="M1275.92,1111.12L1291.54,1111.12C1293.3,1112.19 1295.41,1113.16 1295.41,1114.99L1295.41,1148.21C1295.41,1148.21 1295.69,1148.72 1294.55,1149.85C1293.41,1150.99 1288.45,1152.65 1288.45,1152.65C1288.45,1152.65 1275.93,1152.08 1276.09,1150.58L1275.92,1111.12Z" style="fill:rgb(110,96,96);stroke:black;stroke-width:1.1px;"/>
                            <path id="pitorro-vaper" d="M1276.19,1110.89L1288.07,1110.89L1288.07,1094.33C1288.07,1094.33 1281.12,1093.6 1276.27,1094.33L1276.19,1110.89Z" style="fill:rgb(180,163,163);stroke:black;stroke-width:1.1px;"/>
                            <g id="boton" transform="matrix(0.845306,0,0,0.845306,194.638,179.244)">
                                <ellipse cx="1299.94" cy="1110.37" rx="1.496" ry="2.847" style="fill:rgb(255,0,0);fill-opacity:0;stroke:black;stroke-width:1.3px;"/>
                            </g>
                            <g id="boquilla" transform="matrix(1,0,0,1,0.0772076,0.404926)">
                                <path d="M1278.56,1093.68C1280.99,1093.41 1283.37,1093.41 1285.71,1093.68L1285.71,1086.92C1283.57,1086.3 1281.2,1086.23 1278.53,1086.92L1278.56,1093.68Z" style="fill:rgb(228,228,228);stroke:black;stroke-width:1.1px;"/>
                            </g>
                        </g>
                        <g id="mano" transform="matrix(0.355068,-0.00411154,0.00571755,0.550966,993.644,547.891)">
                            <path d="M1557.12,1210.17C1557.12,1210.17 1559.01,1210.01 1559.01,1207.46C1559.05,1207.38 1558.93,1205.09 1557.88,1205.09C1557.88,1205.09 1555.03,1204.02 1553.49,1205.42L1553.42,1209.34C1553.42,1209.34 1554.47,1210.6 1557.12,1210.17Z" style="fill:rgb(225,137,104);stroke:black;stroke-width:0.28px;"/>
                        </g>
                        <g id="pulsera" transform="matrix(0.423713,0,0,0.423713,893.982,695.323)">
                            <path d="M1553.35,1204.53C1553.35,1204.25 1553.13,1204.02 1552.87,1204.02L1551.91,1204.02C1551.64,1204.02 1551.43,1204.25 1551.43,1204.53L1551.43,1209.31C1551.43,1209.59 1551.64,1209.81 1551.91,1209.81L1552.87,1209.81C1553.13,1209.81 1553.35,1209.59 1553.35,1209.31L1553.35,1204.53Z" style="fill:rgb(255,78,0);stroke:black;stroke-width:0.3px;"/>
                        </g>
                        <g id="tatuaje" transform="matrix(1,0,0,1,0.995621,1.16509)">
                            <g id="tatucorazon" transform="matrix(0.211351,-0.0771531,0.0731649,0.223647,1134.56,1052.53)">
                                <path d="M1537.6,1198.71C1540.99,1193.78 1544.1,1200.85 1538.24,1203.82C1531.09,1202.21 1532.91,1196.07 1537.6,1198.71Z" style="fill:rgb(255,0,0);stroke:black;stroke-width:0.55px;"/>
                            </g>
                            <g id="joker" transform="matrix(-0.00973707,0.00683184,0.00590797,0.00998969,1555.89,1179.61)">
                                <g transform="matrix(54.6027,0,0,54.6027,1664.37,1201.55)">
                                </g>
                                <text x="1534.86px" y="1201.55px" style="font-family:'InkFree', 'Ink Free', cursive;font-size:54.603px;">Joker</text>
                            </g>
                        </g>
                    </g>
                    <g id="reflejo" transform="matrix(0.971552,0.233398,-0.192111,0.799689,271.077,-128.807)">
                        <ellipse cx="1563.13" cy="1179.22" rx="1.953" ry="1.111" style="fill:rgb(213,194,194);stroke:black;stroke-opacity:0;stroke-width:0.18px;"/>
                    </g>
                    <g id="cejas">
                        <g id="ceja-izq" transform="matrix(1,0,0,1,19.0747,1.11735)">
                            <path d="M1537.58,1183.57C1537.58,1183.57 1539.93,1183.43 1540.88,1183.52C1541.83,1183.6 1543.37,1184.27 1543.37,1184.27" style="fill:none;stroke:black;stroke-width:1.01px;"/>
                        </g>
                        <path id="ceja-dcha" d="M1564.78,1185.44L1569.12,1185.24" style="fill:none;stroke:black;stroke-width:1.01px;"/>
                    </g>
                    <g id="arruga-1" transform="matrix(1,0,0,1,-0.399052,-2.07507)">
                        <path d="M1549.47,1185.1L1551.3,1187.13" style="fill:none;stroke:black;stroke-width:0.17px;"/>
                    </g>
                    <g id="arruga-2" transform="matrix(1,0,0,1,-0.399052,-2.07507)">
                        <path d="M1549.69,1184.72L1551.32,1186.03" style="fill:none;stroke:black;stroke-width:0.17px;"/>
                    </g>
                    <g id="ojera" transform="matrix(1,0,0,1,-0.399052,-2.07507)">
                        <path d="M1562.81,1189.13C1562.81,1189.13 1562.47,1189.62 1561.83,1189.81" style="fill:none;stroke:black;stroke-width:0.17px;"/>
                    </g>
                    <g id="arruga-frente" transform="matrix(1,0,0,1,-0.399052,-2.07507)">
                        <path d="M1561.25,1184.35C1561.25,1184.35 1563.79,1185.28 1564.03,1185.71C1564.03,1185.71 1566.64,1183.92 1567.2,1184.06" style="fill:none;stroke:black;stroke-width:0.17px;"/>
                    </g>
                    <g id="arruga-frente1" serif:id="arruga-frente" transform="matrix(1,0,0,1,-0.399052,-2.07507)">
                        <path d="M1562.24,1183.53C1562.24,1183.53 1563.99,1183.92 1564.06,1184.25C1564.06,1184.25 1564.69,1183.92 1564.92,1183.92" style="fill:none;stroke:black;stroke-width:0.17px;"/>
                    </g>
                    <g id="arruga-boca" transform="matrix(1,0,0,1,-0.167357,-2.30676)">
                        <path d="M1560.18,1195.87C1560.18,1195.87 1560.22,1196.61 1560.47,1196.83C1560.71,1197.04 1561.27,1196.85 1561.27,1196.85" style="fill:none;stroke:black;stroke-width:0.17px;"/>
                    </g>
                    <g id="parpado" transform="matrix(1,0,0,1,-0.399052,-2.07507)">
                        <path d="M1562.03,1189.18L1557.88,1189.21C1557.88,1189.21 1558.59,1189.88 1559.87,1189.88C1561.14,1189.88 1562.03,1189.18 1562.03,1189.18Z" style="fill:rgb(225,137,104);stroke:black;stroke-width:0.17px;"/>
                    </g>
                    <g id="angry" transform="matrix(1,0,0,1,-0.399052,-2.07507)">
                        <path id="enfado-1" d="M1553.4,1183.68C1553.49,1182.87 1553.21,1182.5 1552.41,1182.75" style="fill:none;stroke:black;stroke-width:0.17px;"/>
                        <path id="enfado-2" d="M1552.48,1182.09C1552.48,1182.09 1553.83,1182.65 1553.67,1181.33" style="fill:none;stroke:black;stroke-width:0.17px;"/>
                        <path id="enfado-3" d="M1554.2,1181.26C1554.2,1181.26 1553.67,1182.65 1554.86,1182.36" style="fill:none;stroke:black;stroke-width:0.17px;"/>
                        <path id="enfado-4" d="M1553.93,1183.75C1553.93,1183.75 1553.64,1182.39 1554.73,1182.82" style="fill:none;stroke:black;stroke-width:0.17px;"/>
                    </g>
                </g>
            </g>
        </g>
    </g>
</svg>
