<?xml version="1.0" encoding="UTF-8" standalone="no"?>
<!DOCTYPE svg PUBLIC "-//W3C//DTD SVG 1.1//EN" "http://www.w3.org/Graphics/SVG/1.1/DTD/svg11.dtd">
<svg width="100%" height="100%" viewBox="0 0 479 876" version="1.1" xmlns="http://www.w3.org/2000/svg" xmlns:xlink="http://www.w3.org/1999/xlink" xml:space="preserve" xmlns:serif="http://www.serif.com/" style="fill-rule:evenodd;clip-rule:evenodd;stroke-linecap:round;stroke-linejoin:round;stroke-miterlimit:1.5;">
    <g transform="matrix(1,0,0,1,-1039.7,-1298.67)">
        <g transform="matrix(2.75514,0,0,2.75514,-2700.17,-6175.04)">
            <g id="personaje_completo">
                <g id="cuerpo">
                    <g id="pantalones">
                        <g transform="matrix(0.362958,0,0,0.362958,976.665,1937.15)">
                            <path d="M1143.31,2892.33L1143.87,2928.51L1216.08,2926.34L1213.12,2890.83L1143.31,2892.33" style="fill:white;stroke:rgb(18,16,17);stroke-width:0.42px;"/>
                        </g>
                        <g transform="matrix(0.362958,0,0,0.362958,1020.63,1937.51)">
                            <path d="M1143.31,2892.33L1143.87,2928.51L1216.08,2926.34L1213.12,2890.83L1143.31,2892.33" style="fill:white;stroke:rgb(18,16,17);stroke-width:0.42px;"/>
                        </g>
                        <path id="pantalones1" serif:id="pantalones" d="M1384.69,2941.5L1384.61,2988.16L1419.78,2987.7L1419.7,2956.09L1427.4,2956.17L1427.88,2987.7L1464.22,2988.43L1463.75,2940.3L1384.69,2941.5Z" style="fill:rgb(31,39,60);stroke:black;stroke-width:0.3px;"/>
                        <g id="rayas">
                            <path d="M1419.61,2957.14L1419.61,2960.64L1384.85,2965.63L1384.85,2962.46L1419.61,2957.14Z" style="fill:white;stroke:black;stroke-width:0.15px;"/>
                            <g transform="matrix(1,0,0,1,0.259354,3.52721)">
                                <path d="M1419.61,2957.14L1419.61,2960.64L1384.85,2965.63L1384.85,2962.46L1419.61,2957.14Z" style="fill:rgb(241,45,57);stroke:black;stroke-width:0.15px;"/>
                            </g>
                            <g transform="matrix(1,0,0,1,0.363095,7.05443)">
                                <path d="M1419.61,2957.14L1419.61,2960.64L1384.85,2965.63L1384.85,2962.46L1419.61,2957.14Z" style="fill:white;stroke:black;stroke-width:0.15px;"/>
                            </g>
                        </g>
                        <g id="mj" transform="matrix(0.028836,0,0,0.028836,1369.6,2874.44)">
                            <path d="M1001.35,2416.68C999.806,2418.22 1034.33,2417.91 1036.8,2385.54C1036.49,2385.54 1039.57,2355.33 1007.51,2349.17C1006.9,2349.48 973.296,2343.31 968.98,2382.15C968.672,2382.46 968.672,2403.11 980.386,2416.99C982.236,2425 983.16,2427.77 983.16,2427.77L976.379,2459.53C976.379,2459.53 972.68,2460.45 972.063,2466.31L966.823,2484.8L968.364,2487.27L960.966,2501.45C960.966,2501.45 959.733,2506.38 961.274,2511C959.116,2516.55 951.137,2542.54 951.137,2542.54C951.137,2542.54 939.774,2552.14 939.9,2556.55C938.259,2557.44 938.006,2557.31 938.006,2557.31L938.132,2554.16L934.976,2549.99L934.597,2544.18L926.895,2541.78C926.895,2541.78 923.738,2538.25 922.728,2538.75C920.329,2536.23 911.87,2525.62 896.971,2528.15C886.112,2533.45 869.445,2542.78 873.738,2565.39C873.612,2565.78 877.905,2575.38 886.365,2581.31C884.092,2589.52 879.594,2596.91 874.826,2598.12C870.059,2599.33 863.917,2602.08 861.331,2606.28C858.745,2610.48 844.594,2636.4 844.594,2636.4C844.594,2636.4 832.56,2650.41 833.152,2656.52C827.036,2663.43 798.232,2703.28 798.429,2712.95C790.538,2721.23 782.252,2730.9 782.252,2730.9C782.252,2730.9 760.353,2744.12 747.135,2740.57C746.346,2742.15 746.148,2745.11 752.264,2744.91C758.38,2744.71 773.571,2743.33 773.571,2743.33C773.571,2743.33 776.925,2743.92 773.374,2746.88C769.823,2749.84 763.904,2752.6 763.904,2752.6C763.904,2752.6 762.129,2755.93 769.231,2754.18C776.333,2752.43 786.198,2748.88 786.198,2748.88C786.198,2748.88 788.17,2750.26 785.803,2753.22C783.436,2756.18 783.041,2759.93 789.551,2757.36C795.667,2750.46 797.64,2747.5 797.64,2747.5C797.64,2747.5 802.77,2744.74 804.348,2748.68C808.491,2752.23 815.396,2753.02 815.396,2753.02C815.396,2753.02 825.457,2750.06 814.607,2746.71C810.858,2742.37 811.647,2743.75 811.253,2736.65C810.858,2729.54 810.266,2728.95 810.266,2728.95C810.266,2728.95 817.961,2707.45 825.26,2702.91C832.56,2698.37 854.064,2683.97 861.166,2661.28C866.887,2660.1 870.833,2657.53 871.82,2652.41L877.146,2652.8C877.146,2652.8 885.038,2666.61 887.603,2668.58C887.405,2673.32 888.194,2675.68 892.337,2679.83C893.718,2685.75 894.113,2694.43 897.27,2697.78C894.113,2701.14 889.97,2706.46 889.97,2706.46C889.97,2706.46 878.527,2702.91 878.133,2720.86C877.738,2738.82 877.936,2738.82 877.936,2738.82L869.255,2746.91C869.255,2746.91 859.588,2747.42 857.023,2755.31C849.132,2760.84 816.974,2789.05 813.818,2800.1C804.742,2802.07 796.259,2804.44 793.694,2811.15C781.463,2816.67 742.658,2836.6 733.977,2845.87C722.929,2855.14 700.241,2878.22 700.241,2878.22L702.214,2881.38L697.085,2885.13L691.758,2882.76C691.758,2882.76 687.418,2885.33 686.234,2889.67C683.077,2890.65 682.288,2890.26 682.288,2890.26L678.737,2880C678.737,2880 674.002,2874.47 674.791,2883.94C675.975,2887.69 677.356,2893.22 677.356,2893.22L677.553,2896.57L674.199,2896.37L669.662,2900.32L668.873,2903.87L660.784,2907.22L643.817,2912.55L631.586,2913.54L620.932,2922.22C620.932,2922.22 619.748,2930.9 626.653,2935.83C631.586,2941.36 641.647,2950.63 652.695,2943.72C661.968,2940.76 666.308,2939.18 671.043,2941.36C676.764,2941.36 681.894,2943.33 686.431,2932.87L688.996,2931.89C688.996,2931.89 691.363,2925.77 693.533,2925.38C695.704,2924.98 695.506,2930.11 707.343,2911.96C710.303,2910.78 711.684,2910.58 711.289,2908.21C714.248,2906.43 717.997,2904.07 717.997,2904.07C717.997,2904.07 722.337,2903.87 724.113,2902.1L729.439,2897.95L735.555,2899.93L772.546,2871.22C772.546,2871.22 828.033,2843.17 831.424,2833.61C844.987,2828.68 872.281,2816.97 880.296,2812.04C885.536,2807.72 920.061,2789.53 920.061,2789.53C920.061,2789.53 929.309,2786.45 932.391,2791.08C939.481,2794.77 954.586,2800.32 960.751,2799.4C968.766,2803.41 988.803,2811.11 988.803,2811.11C988.803,2811.11 1024.62,2829.91 1045.28,2828.68C1060.07,2836.08 1105.39,2869.37 1105.39,2869.37C1105.39,2869.37 1111.55,2873.69 1115.25,2873.38C1117.72,2876.15 1140.53,2891.57 1140.53,2891.57C1140.53,2891.57 1139.91,2894.34 1148.54,2893.11C1157.48,2899.58 1159.02,2901.43 1159.02,2901.43C1159.02,2901.43 1162.41,2911.3 1168.27,2909.75C1170.74,2914.38 1174.74,2923.93 1180.91,2925.17C1182.45,2931.02 1184.3,2939.96 1189.23,2941.81C1193.86,2941.51 1193.55,2945.2 1203.41,2934.11C1214.2,2926.09 1233.62,2913.14 1233.62,2913.14L1261.98,2886.64C1261.98,2886.64 1258.9,2878.93 1247.49,2880.78C1235.78,2887.87 1234.85,2888.49 1234.85,2888.49C1234.85,2888.49 1206.5,2893.72 1199.1,2890.64C1205.26,2881.09 1208.96,2876.15 1208.96,2876.15L1217.28,2873.07C1217.28,2873.07 1217.28,2867.22 1212.35,2870.3C1207.42,2873.38 1201.25,2878.93 1201.25,2878.93L1197.86,2878.62C1197.86,2878.62 1190.46,2888.49 1183.38,2878.62L1180.29,2878.93L1174.13,2875.54L1176.29,2869.37L1167.04,2863.21C1167.04,2863.21 1097.37,2803.1 1069.94,2791.08L1063.15,2789.84C1063.15,2789.84 1053.29,2772.52 998.111,2745.14C997.803,2744.9 1004.28,2737.81 995.645,2729.18L984.856,2722.7L977.766,2709.76C977.766,2709.76 988.555,2673.07 983.315,2645.95C983.315,2645.95 980.849,2627.45 973.142,2619.74L967.285,2591.08C967.285,2591.08 981.774,2555.63 977.458,2543.91C978.999,2541.14 981.157,2531.58 981.465,2528.19C981.774,2524.8 991.946,2504.76 990.713,2495.52C995.953,2487.81 995.953,2488.12 997.187,2476.1C998.111,2466.85 996.878,2472.7 997.187,2464.69C997.495,2456.68 998.42,2439.1 1000.27,2432.01C1002.12,2424.92 997.802,2419.22 1001.35,2416.68" style="fill:white;stroke:black;stroke-width:5.24px;"/>
                        </g>
                    </g>
                    <g id="zapatillas" transform="matrix(-0.539841,0,0,0.488412,1781.27,1820.6)">
                        <path d="M546.885,2469.82C546.255,2470.1 560.006,2476.86 569.077,2476.71C577.364,2476.58 608.027,2475.14 621.048,2465.27C647.287,2452.84 652.614,2450.08 652.219,2447.51C651.43,2439.82 651.233,2428.58 651.233,2428.58C651.233,2428.58 648.866,2431.34 647.682,2407.86C642.158,2396.22 640.777,2396.02 640.777,2396.02C640.777,2396.02 639.001,2405.1 639.396,2409.04C636.239,2412.99 637.226,2415.36 632.688,2411.21C628.151,2407.07 630.518,2406.09 621.837,2404.51L622.627,2396.62C622.627,2396.62 599.742,2383.2 592.442,2389.71L591.653,2398L575.673,2421.47C575.673,2421.47 560.482,2440.61 555.155,2442.19C549.828,2444.95 544.245,2452.89 543.85,2458.02C543.455,2463.15 546.885,2469.82 546.885,2469.82Z" style="fill:rgb(93,91,92);stroke:black;stroke-width:0.29px;"/>
                        <g transform="matrix(1,0,0,1,6.31314,-6.51042)">
                            <path d="M567.979,2432.13C567.979,2432.13 583.367,2436.27 585.34,2439.03C587.313,2441.79 589.877,2438.05 589.877,2438.05L569.36,2428.77L567.979,2432.13Z" style="fill:rgb(18,16,17);stroke:black;stroke-width:0.29px;"/>
                        </g>
                        <g transform="matrix(1,0,0,1,13.0208,-12.429)">
                            <path d="M567.979,2432.13C567.979,2432.13 583.367,2436.27 585.34,2439.03C587.313,2441.79 589.877,2438.05 589.877,2438.05L569.36,2428.77L567.979,2432.13Z" style="fill:rgb(18,16,17);stroke:black;stroke-width:0.29px;"/>
                        </g>
                        <g transform="matrix(1.12613,0,0,1.13999,-58.0242,-358.354)">
                            <path d="M567.979,2432.13C567.979,2432.13 583.367,2436.27 585.34,2439.03C587.313,2441.79 589.877,2438.05 589.877,2438.05L569.36,2428.77L567.979,2432.13Z" style="fill:rgb(18,16,17);stroke:black;stroke-width:0.26px;"/>
                        </g>
                        <g transform="matrix(1.12613,0,0,1.13999,-52.303,-363.484)">
                            <path d="M567.979,2432.13C567.979,2432.13 583.367,2436.27 585.34,2439.03C587.313,2441.79 589.877,2438.05 589.877,2438.05L569.36,2428.77L567.979,2432.13Z" style="fill:rgb(18,16,17);stroke:black;stroke-width:0.26px;"/>
                        </g>
                        <path d="M567.979,2432.13C567.979,2432.13 583.367,2436.27 585.34,2439.03C587.313,2441.79 589.877,2438.05 589.877,2438.05L569.36,2428.77L567.979,2432.13Z" style="fill:rgb(18,16,17);stroke:black;stroke-width:0.29px;"/>
                        <path d="M596.19,2408.06C596.19,2408.06 586.523,2402.93 585.142,2408.26C583.761,2413.58 596.19,2411.02 596.19,2411.02L596.19,2408.06Z" style="fill:rgb(18,16,17);stroke:black;stroke-width:0.29px;"/>
                        <g transform="matrix(-1,0,0,1,1199.43,0.103434)">
                            <path d="M596.656,2408.01C596.656,2408.01 586.523,2402.93 585.142,2408.26C583.761,2413.58 596.656,2410.86 596.656,2410.86L596.656,2408.01Z" style="fill:rgb(18,16,17);stroke:black;stroke-width:0.29px;"/>
                        </g>
                        <g transform="matrix(-0.416373,0,0,0.45566,855.404,1311.27)">
                            <path d="M596.19,2408.06C596.19,2408.06 586.523,2402.93 585.142,2408.26C583.761,2413.58 596.19,2411.02 596.19,2411.02L596.19,2408.06Z" style="fill:rgb(93,91,92);stroke:black;stroke-width:0.68px;"/>
                        </g>
                        <g transform="matrix(0.416373,0,0,0.45566,344.231,1311.07)">
                            <path d="M596.19,2408.06C596.19,2408.06 586.523,2402.93 585.142,2408.26C583.761,2413.58 596.19,2411.02 596.19,2411.02L596.19,2408.06Z" style="fill:none;stroke:black;stroke-width:0.68px;"/>
                        </g>
                        <path d="M598.952,2407.07C595.401,2408.26 595.007,2408.85 596.782,2411.61C599.939,2413.58 600.531,2413.39 602.504,2411.21C604.476,2409.04 602.504,2405.89 598.952,2407.07Z" style="fill:rgb(18,16,17);stroke:black;stroke-width:0.29px;"/>
                        <path d="M561.074,2454.81C561.074,2454.81 557.522,2457.18 559.101,2459.16C560.679,2461.13 568.57,2459.55 571.727,2457.77C562.652,2457.77 560.876,2457.58 560.876,2457.58L561.074,2454.81Z" style="fill:rgb(237,235,236);stroke:rgb(237,235,236);stroke-width:0.29px;"/>
                        <path d="M621.246,2464.28C621.246,2464.28 626.967,2435.09 648.668,2431.14C650.049,2435.48 650.049,2438.44 649.063,2441.4C652.022,2446.73 652.219,2447.51 652.219,2447.51" style="fill:rgb(237,235,236);stroke:black;stroke-width:0.29px;"/>
                        <path d="M631.11,2449.88L631.307,2453.63L645.117,2447.12L644.92,2442.98L631.11,2449.88Z" style="fill:rgb(65,63,64);stroke:black;stroke-width:0.29px;"/>
                        <g transform="matrix(1,0,0,1,66.6609,-95.9455)">
                            <path d="M480.38,2566.49C480.38,2566.49 551.24,2560.01 558.091,2549.46C564.943,2538.91 553.383,2555.86 554.925,2559.71C556.466,2563.57 521.652,2574.74 499.556,2572.46C479.228,2568.17 482.794,2565.69 480.38,2566.49Z" style="fill:none;stroke:black;stroke-width:0.29px;"/>
                        </g>
                        <path d="M621.048,2423.25C621.048,2423.25 610.395,2434.3 620.851,2441.79C635.845,2428.38 644.328,2420.29 646.695,2411.81C640.974,2418.51 631.702,2430.35 623.613,2431.53C621.443,2423.45 621.048,2423.25 621.048,2423.25Z" style="fill:rgb(237,235,236);stroke:black;stroke-width:0.29px;"/>
                        <path d="M592.639,2402.73L610.395,2402.14L612.565,2394.25L596.19,2389.32C596.19,2389.32 591.258,2399.58 592.639,2402.73Z" style="fill:rgb(237,235,236);stroke:black;stroke-width:0.29px;"/>
                        <g transform="matrix(0.942294,-0.334787,0.334787,0.942294,-751.909,270.113)">
                            <path d="M561.074,2454.81C561.074,2454.81 557.522,2457.18 559.101,2459.16C560.679,2461.13 568.57,2459.55 571.727,2457.77C562.652,2457.77 560.876,2457.58 560.876,2457.58L561.074,2454.81Z" style="fill:rgb(18,16,17);stroke:rgb(237,235,236);stroke-width:0.28px;"/>
                        </g>
                    </g>
                    <g transform="matrix(0.362958,0,0,0.362958,1059.9,1942.21)">
                        <path d="M1025.21,2912.33L1091.68,2949.42L1120.58,2989.4L1121.54,2996.62C1086.08,2994.63 1051.84,2981.11 1018.95,2954.72L1025.21,2912.33Z" style="fill-opacity:0.23;stroke:rgb(71,70,71);stroke-width:0.42px;"/>
                    </g>
                    <g id="zapatillas1" serif:id="zapatillas" transform="matrix(-0.539841,0,0,0.488412,1737.57,1820.6)">
                        <path d="M539.372,2467.24C539.372,2467.24 559.495,2476.52 567.781,2476.71C576.067,2476.91 608.027,2475.14 621.048,2465.27C647.287,2452.84 652.614,2450.08 652.219,2447.51C651.43,2439.82 651.233,2428.58 651.233,2428.58C651.233,2428.58 648.866,2431.34 647.682,2407.86C642.158,2396.22 640.777,2396.02 640.777,2396.02C640.777,2396.02 639.001,2405.1 639.396,2409.04C636.239,2412.99 637.226,2415.36 632.688,2411.21C628.151,2407.07 630.518,2406.09 621.837,2404.51L622.627,2396.62C622.627,2396.62 599.742,2383.2 592.442,2389.71L591.653,2398L575.673,2421.47C575.673,2421.47 560.482,2440.61 555.155,2442.19C549.828,2444.95 540.359,2451.46 539.964,2456.59C539.569,2461.72 539.372,2467.24 539.372,2467.24Z" style="fill:rgb(93,91,92);stroke:black;stroke-width:0.29px;"/>
                        <g transform="matrix(1,0,0,1,6.31314,-6.51042)">
                            <path d="M567.979,2432.13C567.979,2432.13 583.367,2436.27 585.34,2439.03C587.313,2441.79 589.877,2438.05 589.877,2438.05L569.36,2428.77L567.979,2432.13Z" style="fill:rgb(18,16,17);stroke:black;stroke-width:0.29px;"/>
                        </g>
                        <g transform="matrix(1,0,0,1,13.0208,-12.429)">
                            <path d="M567.979,2432.13C567.979,2432.13 583.367,2436.27 585.34,2439.03C587.313,2441.79 589.877,2438.05 589.877,2438.05L569.36,2428.77L567.979,2432.13Z" style="fill:rgb(18,16,17);stroke:black;stroke-width:0.29px;"/>
                        </g>
                        <g transform="matrix(1.12613,0,0,1.13999,-58.0242,-358.354)">
                            <path d="M567.979,2432.13C567.979,2432.13 583.367,2436.27 585.34,2439.03C587.313,2441.79 589.877,2438.05 589.877,2438.05L569.36,2428.77L567.979,2432.13Z" style="fill:rgb(18,16,17);stroke:black;stroke-width:0.26px;"/>
                        </g>
                        <g transform="matrix(1.12613,0,0,1.13999,-52.303,-363.484)">
                            <path d="M567.979,2432.13C567.979,2432.13 583.367,2436.27 585.34,2439.03C587.313,2441.79 589.877,2438.05 589.877,2438.05L569.36,2428.77L567.979,2432.13Z" style="fill:rgb(18,16,17);stroke:black;stroke-width:0.26px;"/>
                        </g>
                        <path d="M567.979,2432.13C567.979,2432.13 583.367,2436.27 585.34,2439.03C587.313,2441.79 589.877,2438.05 589.877,2438.05L569.36,2428.77L567.979,2432.13Z" style="fill:rgb(18,16,17);stroke:black;stroke-width:0.29px;"/>
                        <path d="M596.19,2408.06C596.19,2408.06 586.523,2402.93 585.142,2408.26C583.761,2413.58 596.19,2411.02 596.19,2411.02L596.19,2408.06Z" style="fill:rgb(18,16,17);stroke:black;stroke-width:0.29px;"/>
                        <g transform="matrix(-1,0,0,1,1199.43,0.103434)">
                            <path d="M596.656,2408.01C596.656,2408.01 586.523,2402.93 585.142,2408.26C583.761,2413.58 596.656,2410.86 596.656,2410.86L596.656,2408.01Z" style="fill:rgb(18,16,17);stroke:black;stroke-width:0.29px;"/>
                        </g>
                        <g transform="matrix(-0.416373,0,0,0.45566,855.404,1311.27)">
                            <path d="M596.19,2408.06C596.19,2408.06 586.523,2402.93 585.142,2408.26C583.761,2413.58 596.19,2411.02 596.19,2411.02L596.19,2408.06Z" style="fill:rgb(93,91,92);stroke:black;stroke-width:0.68px;"/>
                        </g>
                        <g transform="matrix(0.416373,0,0,0.45566,344.231,1311.07)">
                            <path d="M596.19,2408.06C596.19,2408.06 586.523,2402.93 585.142,2408.26C583.761,2413.58 596.19,2411.02 596.19,2411.02L596.19,2408.06Z" style="fill:none;stroke:black;stroke-width:0.68px;"/>
                        </g>
                        <path d="M598.952,2407.07C595.401,2408.26 595.007,2408.85 596.782,2411.61C599.939,2413.58 600.531,2413.39 602.504,2411.21C604.476,2409.04 602.504,2405.89 598.952,2407.07Z" style="fill:rgb(18,16,17);stroke:black;stroke-width:0.29px;"/>
                        <path d="M561.074,2454.81C561.074,2454.81 557.522,2457.18 559.101,2459.16C560.679,2461.13 568.57,2459.55 571.727,2457.77C562.652,2457.77 560.876,2457.58 560.876,2457.58L561.074,2454.81Z" style="fill:rgb(237,235,236);stroke:rgb(237,235,236);stroke-width:0.29px;"/>
                        <path d="M621.246,2464.28C621.246,2464.28 626.967,2435.09 648.668,2431.14C650.049,2435.48 650.049,2438.44 649.063,2441.4C652.022,2446.73 652.219,2447.51 652.219,2447.51" style="fill:rgb(237,235,236);stroke:black;stroke-width:0.29px;"/>
                        <path d="M631.11,2449.88L631.307,2453.63L645.117,2447.12L644.92,2442.98L631.11,2449.88Z" style="fill:rgb(65,63,64);stroke:black;stroke-width:0.29px;"/>
                        <g transform="matrix(1,0,0,1,66.6609,-95.9455)">
                            <path d="M480.38,2566.49C480.38,2566.49 551.24,2560.01 558.091,2549.46C564.943,2538.91 553.383,2555.86 554.925,2559.71C556.466,2563.57 521.652,2574.74 499.556,2572.46C479.228,2568.17 482.794,2565.69 480.38,2566.49Z" style="fill:none;stroke:black;stroke-width:0.29px;"/>
                        </g>
                        <path d="M621.048,2423.25C621.048,2423.25 610.395,2434.3 620.851,2441.79C635.845,2428.38 644.328,2420.29 646.695,2411.81C640.974,2418.51 631.702,2430.35 623.613,2431.53C621.443,2423.45 621.048,2423.25 621.048,2423.25Z" style="fill:rgb(237,235,236);stroke:black;stroke-width:0.29px;"/>
                        <path d="M592.639,2402.73L610.395,2402.14L612.565,2394.25L596.19,2389.32C596.19,2389.32 591.258,2399.58 592.639,2402.73Z" style="fill:rgb(237,235,236);stroke:black;stroke-width:0.29px;"/>
                        <g transform="matrix(0.942294,-0.334787,0.334787,0.942294,-751.909,270.113)">
                            <path d="M561.074,2454.81C561.074,2454.81 557.522,2457.18 559.101,2459.16C560.679,2461.13 568.57,2459.55 571.727,2457.77C562.652,2457.77 560.876,2457.58 560.876,2457.58L561.074,2454.81Z" style="fill:rgb(18,16,17);stroke:rgb(237,235,236);stroke-width:0.28px;"/>
                        </g>
                    </g>
                    <g id="camiseta">
                        <path d="M1384.25,2906.61L1383.62,2919.78L1367.16,2919.78L1365.89,2888.63C1365.89,2888.63 1369.94,2877.14 1395.4,2877.11C1404.64,2881.88 1454.28,2880.72 1460.49,2876.57C1467.07,2873.81 1491.13,2882.17 1487.59,2891.16C1487.08,2901.42 1486.58,2917.12 1486.58,2917.12L1470.11,2917.12L1469.73,2906.23L1470.75,2923.7C1470.75,2923.7 1470.67,2931.48 1470.9,2940.07C1461.27,2940.09 1463.4,2940.29 1463.4,2940.29L1383.62,2941.56L1383.62,2919.78" style="fill:rgb(31,39,60);stroke:black;stroke-width:0.15px;"/>
                        <g id="add" transform="matrix(0.620051,0,0,0.532995,879.805,1421.19)">
                            <g transform="matrix(1,0,0,1,16.0191,0)">
                                <path d="M887.524,2792.9L887.986,2831.1L892.453,2834.65L900.001,2834.95L897.382,2831.1L895.996,2792.9L887.524,2792.9Z" style="fill:white;stroke:black;stroke-width:0.52px;"/>
                            </g>
                            <path d="M887.524,2792.9L887.986,2831.1L892.453,2834.65L900.001,2834.95L897.382,2831.1L895.996,2792.9L887.524,2792.9Z" style="fill:white;stroke:black;stroke-width:0.52px;"/>
                            <path d="M843.626,2834.95C846.706,2833.11 849.787,2830.8 849.787,2830.8C849.787,2830.8 851.327,2829.26 848.555,2827.87L848.247,2822.02C848.247,2822.02 855.178,2812.31 853.022,2810C855.486,2810.46 861.185,2819.86 861.185,2819.86L865.498,2817.09L859.491,2805.53L859.337,2798.91L864.112,2792.13L885.368,2834.65L873.816,2834.95L867.192,2820.63C867.192,2820.63 853.946,2838.03 843.626,2834.95Z" style="fill:white;stroke:black;stroke-width:0.52px;"/>
                        </g>
                        <g id="mj1" serif:id="mj" transform="matrix(0.0385171,0,0,0.0385171,1364.77,2793.71)">
                            <path d="M1001.35,2416.68C999.806,2418.22 1034.33,2417.91 1036.8,2385.54C1036.49,2385.54 1039.57,2355.33 1007.51,2349.17C1006.9,2349.48 973.296,2343.31 968.98,2382.15C968.672,2382.46 968.672,2403.11 980.386,2416.99C982.236,2425 983.16,2427.77 983.16,2427.77L976.379,2459.53C976.379,2459.53 972.68,2460.45 972.063,2466.31L966.823,2484.8L968.364,2487.27L960.966,2501.45C960.966,2501.45 959.733,2506.38 961.274,2511C959.116,2516.55 951.137,2542.54 951.137,2542.54C951.137,2542.54 939.774,2552.14 939.9,2556.55C938.259,2557.44 938.006,2557.31 938.006,2557.31L938.132,2554.16L934.976,2549.99L934.597,2544.18L926.895,2541.78C926.895,2541.78 923.738,2538.25 922.728,2538.75C920.329,2536.23 911.87,2525.62 896.971,2528.15C886.112,2533.45 869.445,2542.78 873.738,2565.39C873.612,2565.78 877.905,2575.38 886.365,2581.31C884.092,2589.52 879.594,2596.91 874.826,2598.12C870.059,2599.33 863.917,2602.08 861.331,2606.28C858.745,2610.48 844.594,2636.4 844.594,2636.4C844.594,2636.4 832.56,2650.41 833.152,2656.52C827.036,2663.43 798.232,2703.28 798.429,2712.95C790.538,2721.23 782.252,2730.9 782.252,2730.9C782.252,2730.9 760.353,2744.12 747.135,2740.57C746.346,2742.15 746.148,2745.11 752.264,2744.91C758.38,2744.71 773.571,2743.33 773.571,2743.33C773.571,2743.33 776.925,2743.92 773.374,2746.88C769.823,2749.84 763.904,2752.6 763.904,2752.6C763.904,2752.6 762.129,2755.93 769.231,2754.18C776.333,2752.43 786.198,2748.88 786.198,2748.88C786.198,2748.88 788.17,2750.26 785.803,2753.22C783.436,2756.18 783.041,2759.93 789.551,2757.36C795.667,2750.46 797.64,2747.5 797.64,2747.5C797.64,2747.5 802.77,2744.74 804.348,2748.68C808.491,2752.23 815.396,2753.02 815.396,2753.02C815.396,2753.02 825.457,2750.06 814.607,2746.71C810.858,2742.37 811.647,2743.75 811.253,2736.65C810.858,2729.54 810.266,2728.95 810.266,2728.95C810.266,2728.95 817.961,2707.45 825.26,2702.91C832.56,2698.37 854.064,2683.97 861.166,2661.28C866.887,2660.1 870.833,2657.53 871.82,2652.41L877.146,2652.8C877.146,2652.8 885.038,2666.61 887.603,2668.58C887.405,2673.32 888.194,2675.68 892.337,2679.83C893.718,2685.75 894.113,2694.43 897.27,2697.78C894.113,2701.14 889.97,2706.46 889.97,2706.46C889.97,2706.46 878.527,2702.91 878.133,2720.86C877.738,2738.82 877.936,2738.82 877.936,2738.82L869.255,2746.91C869.255,2746.91 859.588,2747.42 857.023,2755.31C849.132,2760.84 816.974,2789.05 813.818,2800.1C804.742,2802.07 796.259,2804.44 793.694,2811.15C781.463,2816.67 742.658,2836.6 733.977,2845.87C722.929,2855.14 700.241,2878.22 700.241,2878.22L702.214,2881.38L697.085,2885.13L691.758,2882.76C691.758,2882.76 687.418,2885.33 686.234,2889.67C683.077,2890.65 682.288,2890.26 682.288,2890.26L678.737,2880C678.737,2880 674.002,2874.47 674.791,2883.94C675.975,2887.69 677.356,2893.22 677.356,2893.22L677.553,2896.57L674.199,2896.37L669.662,2900.32L668.873,2903.87L660.784,2907.22L643.817,2912.55L631.586,2913.54L620.932,2922.22C620.932,2922.22 619.748,2930.9 626.653,2935.83C631.586,2941.36 641.647,2950.63 652.695,2943.72C661.968,2940.76 666.308,2939.18 671.043,2941.36C676.764,2941.36 681.894,2943.33 686.431,2932.87L688.996,2931.89C688.996,2931.89 691.363,2925.77 693.533,2925.38C695.704,2924.98 695.506,2930.11 707.343,2911.96C710.303,2910.78 711.684,2910.58 711.289,2908.21C714.248,2906.43 717.997,2904.07 717.997,2904.07C717.997,2904.07 722.337,2903.87 724.113,2902.1L729.439,2897.95L735.555,2899.93L772.546,2871.22C772.546,2871.22 828.033,2843.17 831.424,2833.61C844.987,2828.68 872.281,2816.97 880.296,2812.04C885.536,2807.72 920.061,2789.53 920.061,2789.53C920.061,2789.53 929.309,2786.45 932.391,2791.08C939.481,2794.77 954.586,2800.32 960.751,2799.4C968.766,2803.41 988.803,2811.11 988.803,2811.11C988.803,2811.11 1024.62,2829.91 1045.28,2828.68C1060.07,2836.08 1105.39,2869.37 1105.39,2869.37C1105.39,2869.37 1111.55,2873.69 1115.25,2873.38C1117.72,2876.15 1140.53,2891.57 1140.53,2891.57C1140.53,2891.57 1139.91,2894.34 1148.54,2893.11C1157.48,2899.58 1159.02,2901.43 1159.02,2901.43C1159.02,2901.43 1162.41,2911.3 1168.27,2909.75C1170.74,2914.38 1174.74,2923.93 1180.91,2925.17C1182.45,2931.02 1184.3,2939.96 1189.23,2941.81C1193.86,2941.51 1193.55,2945.2 1203.41,2934.11C1214.2,2926.09 1233.62,2913.14 1233.62,2913.14L1261.98,2886.64C1261.98,2886.64 1258.9,2878.93 1247.49,2880.78C1235.78,2887.87 1234.85,2888.49 1234.85,2888.49C1234.85,2888.49 1206.5,2893.72 1199.1,2890.64C1205.26,2881.09 1208.96,2876.15 1208.96,2876.15L1217.28,2873.07C1217.28,2873.07 1217.28,2867.22 1212.35,2870.3C1207.42,2873.38 1201.25,2878.93 1201.25,2878.93L1197.86,2878.62C1197.86,2878.62 1190.46,2888.49 1183.38,2878.62L1180.29,2878.93L1174.13,2875.54L1176.29,2869.37L1167.04,2863.21C1167.04,2863.21 1097.37,2803.1 1069.94,2791.08L1063.15,2789.84C1063.15,2789.84 1053.29,2772.52 998.111,2745.14C997.803,2744.9 1004.28,2737.81 995.645,2729.18L984.856,2722.7L977.766,2709.76C977.766,2709.76 988.555,2673.07 983.315,2645.95C983.315,2645.95 980.849,2627.45 973.142,2619.74L967.285,2591.08C967.285,2591.08 981.774,2555.63 977.458,2543.91C978.999,2541.14 981.157,2531.58 981.465,2528.19C981.774,2524.8 991.946,2504.76 990.713,2495.52C995.953,2487.81 995.953,2488.12 997.187,2476.1C998.111,2466.85 996.878,2472.7 997.187,2464.69C997.495,2456.68 998.42,2439.1 1000.27,2432.01C1002.12,2424.92 997.802,2419.22 1001.35,2416.68" style="fill:white;stroke:black;stroke-width:3.93px;"/>
                        </g>
                        <g id="rayas1" serif:id="rayas" transform="matrix(0.504146,0,0,0.888009,771.655,267.909)">
                            <path d="M1419.61,2957.14L1419.61,2960.64L1384.85,2965.63L1384.85,2962.46L1419.61,2957.14Z" style="fill:white;stroke:black;stroke-width:0.21px;"/>
                            <g transform="matrix(1,0,0,1,0.259354,3.52721)">
                                <path d="M1419.61,2957.14L1419.35,2960.64L1384.6,2965.63L1384.6,2962.47L1419.61,2957.14Z" style="fill:rgb(241,45,57);stroke:black;stroke-width:0.21px;"/>
                            </g>
                            <g transform="matrix(1,0,0,1,0.363095,7.05443)">
                                <path d="M1419.22,2957.14L1418.84,2960.64L1384.6,2965.63L1384.34,2962.46L1419.22,2957.14Z" style="fill:white;stroke:black;stroke-width:0.21px;"/>
                            </g>
                        </g>
                        <g id="psg" transform="matrix(0.0310781,0,0,0.0310781,1419.91,2806.56)">
                            <g transform="matrix(1.20047,0,0,1.20047,-242.343,-611.85)">
                                <circle cx="1043.41" cy="2895.62" r="221.951" style="fill:rgb(1,81,150);stroke:white;stroke-width:4.05px;"/>
                            </g>
                            <g transform="matrix(1.01768,0,0,1.01768,-76.4965,-133.213)">
                                <circle cx="1067.58" cy="2947.74" r="248.249" style="fill:white;stroke:white;stroke-width:4.78px;"/>
                            </g>
                            <g transform="matrix(0.970291,0,0,0.970291,-26.2319,5.54378)">
                                <circle cx="1067.58" cy="2947.74" r="248.249" style="fill:rgb(1,81,150);stroke:rgb(1,81,150);stroke-width:5.02px;"/>
                            </g>
                            <g transform="matrix(0.918596,0,0,0.918596,60.043,179.083)">
                                <circle cx="1034.91" cy="2923.26" r="161.234" style="fill:white;stroke:white;stroke-width:5.3px;"/>
                            </g>
                            <g transform="matrix(0.852875,0,0,0.852875,127.577,373.128)">
                                <circle cx="1034.91" cy="2923.26" r="161.234" style="fill:rgb(1,81,150);stroke:rgb(1,81,150);stroke-width:5.71px;"/>
                            </g>
                            <g transform="matrix(4.51181,0,0,4.51181,-5464.48,-8903.34)">
                                <path d="M1439.17,2578.38C1432.02,2577.22 1431.46,2578.51 1431.46,2578.51C1431.46,2578.51 1431.87,2606.95 1408.53,2624.37C1418.49,2638.03 1418.66,2634.04 1419.97,2634.95C1421.42,2623.24 1420.81,2621.01 1435.14,2617.19C1452.11,2622.72 1450.59,2631.01 1449.8,2634.82C1457.29,2632.85 1460.77,2626.41 1460.77,2623.92C1457.75,2621.02 1434.49,2594.99 1439.17,2578.38Z" style="fill:rgb(239,47,58);stroke:white;stroke-width:1.08px;"/>
                            </g>
                            <g transform="matrix(4.51181,0,0,4.51181,-5464.48,-8903.34)">
                                <path d="M1437.99,2578.13C1437.99,2578.13 1434.94,2600.86 1460.76,2625.35C1462.14,2622.88 1460.98,2624.91 1462.79,2621.65C1459.48,2619.07 1439.68,2603.46 1439.67,2578.33C1438.32,2578.1 1437.99,2578.13 1437.99,2578.13Z" style="fill:white;stroke:white;stroke-width:1.08px;"/>
                            </g>
                            <g transform="matrix(4.51181,0,0,4.51181,-5464.48,-8903.34)">
                                <path d="M1424.17,2607.78C1424.17,2607.78 1423.52,2608.84 1423.39,2609.08C1424.5,2609.05 1446.93,2609.08 1446.93,2609.08L1446.2,2607.77L1424.17,2607.78Z" style="fill:white;stroke:white;stroke-width:1.08px;"/>
                            </g>
                            <g transform="matrix(4.51181,0,0,4.51181,-5464.48,-8903.34)">
                                <path d="M1419.05,2634.85C1419.05,2634.85 1417.36,2616.99 1435.4,2616.44C1453.54,2618.69 1451.12,2632.43 1451.49,2634.47C1446.54,2637.17 1446.32,2637.17 1446.32,2637.17C1446.32,2637.17 1454.51,2621.92 1435.12,2618.15C1415.83,2622.46 1423.86,2635.39 1424.66,2637.44C1419.01,2635.01 1419.05,2634.85 1419.05,2634.85Z" style="fill:white;stroke:white;stroke-width:1.08px;"/>
                            </g>
                            <g transform="matrix(-4.51181,0,0,4.51181,7485.73,-8902.88)">
                                <path d="M1437.94,2578.04C1437.94,2578.04 1434.98,2600.85 1460.8,2625.34C1462.18,2622.87 1461.17,2624.83 1462.98,2621.58C1459.67,2618.99 1439.71,2603.42 1439.69,2578.29C1438.35,2578.06 1437.94,2578.04 1437.94,2578.04Z" style="fill:white;stroke:white;stroke-width:1.08px;"/>
                            </g>
                            <path d="M1009.61,2971.92C1009.61,2971.92 1000.64,2951.84 1000.64,2950.33C1000.64,2948.81 1007.33,2928.86 1010.49,2926.97C1013.77,2929.87 1020.34,2944.01 1020.84,2948.43C1020.09,2953.23 1013.02,2969.9 1011,2971.67C1008.98,2973.43 1009.61,2971.92 1009.61,2971.92Z" style="fill:rgb(180,151,86);stroke:rgb(180,151,86);stroke-width:4.87px;"/>
                            <path d="M1014.78,2971.54C1014.78,2971.54 1023.37,2951.59 1033.85,2955C1038.77,2956.51 1044.71,2957.78 1042.81,2966.99C1038.77,2972.68 1039.15,2976.59 1030.94,2973.31C1028.42,2971.67 1027.79,2971.54 1027.54,2968.89C1027.79,2969.01 1032.46,2966.74 1032.46,2966.74C1032.46,2966.74 1033.09,2962.2 1028.55,2962.83C1024.63,2964.47 1017.69,2971.92 1017.69,2972.42C1017.69,2972.8 1014.53,2972.8 1014.78,2971.54Z" style="fill:rgb(180,151,86);stroke:rgb(180,151,86);stroke-width:4.87px;"/>
                            <path d="M1010.87,2975.64L1015.67,2981.82L1010.87,2988.51L1005.45,2982.2L1010.87,2975.64Z" style="fill:rgb(180,151,85);stroke:rgb(180,151,86);stroke-width:4.87px;"/>
                            <path d="M1006.2,2971.09C1006.2,2971.09 999.385,2953.41 989.283,2954.8C984.359,2955.69 979.435,2956.44 977.92,2962.76C978.551,2969.07 983.223,2977.02 990.546,2973.36C992.44,2972.23 995.218,2970.08 990.546,2968.57C988.4,2967.3 989.157,2962.12 992.44,2962.76C996.102,2964.4 1003.68,2972.61 1003.68,2972.61C1003.68,2972.61 1006.46,2972.61 1006.2,2971.09Z" style="fill:rgb(180,151,86);stroke:rgb(180,151,86);stroke-width:4.87px;"/>
                            <path d="M843.103,2713.52L888.233,2754.71L897.85,2745.83L884.287,2732.51L905.248,2707.61C905.248,2707.61 914.866,2671.85 875.162,2680.23C852.721,2702.67 843.103,2713.52 843.103,2713.52Z" style="fill:white;stroke:white;stroke-width:4.87px;"/>
                            <path d="M861.106,2711.06L875.162,2724.87L893.658,2703.91C893.658,2703.91 898.59,2689.36 881.328,2690.34C868.257,2704.15 861.106,2711.06 861.106,2711.06Z" style="fill:rgb(1,81,150);stroke:rgb(1,81,150);stroke-width:4.87px;"/>
                            <path d="M924.237,2724.87L928.923,2653.84L941.746,2649.65L990.328,2702.18L974.792,2705.39L964.187,2693.05L937.801,2702.18L938.047,2717.72L924.237,2724.87Z" style="fill:white;stroke:white;stroke-width:4.87px;"/>
                            <path d="M939.773,2664.7L956.049,2682.94L938.787,2689.6L939.773,2664.7Z" style="fill:rgb(1,81,150);stroke:rgb(1,81,150);stroke-width:4.87px;"/>
                            <path d="M997.43,2639.79L996.937,2700.95L1010.75,2701.44L1010.25,2683.19L1025.54,2683.19L1038.37,2703.66L1055.88,2707.36L1039.85,2682.2C1039.85,2682.2 1078.32,2659.37 1038.37,2639.79C997.43,2640.18 997.43,2639.79 997.43,2639.79Z" style="fill:white;stroke:white;stroke-width:4.87px;"/>
                            <path d="M1066.48,2710.71L1090.15,2652.76L1103.47,2658.92L1079.3,2715.64L1066.48,2710.71Z" style="fill:white;stroke:white;stroke-width:4.87px;"/>
                            <path d="M1172.03,2712.68C1172.03,2712.68 1150.82,2674.21 1124.92,2682.11C1125.17,2682.85 1102.48,2692.22 1131.58,2719.34L1140.71,2730.69C1140.71,2730.69 1139.23,2752.14 1123.44,2731.18C1107.66,2710.22 1106.68,2709.97 1106.68,2709.97L1097.31,2716.88C1097.31,2716.88 1126.4,2767.43 1146.13,2750.42C1153.04,2744.74 1161.42,2735.13 1145.64,2715.89C1134.05,2703.56 1132.82,2702.08 1132.82,2702.08C1132.82,2702.08 1126.16,2687.28 1144.41,2697.64C1158.71,2711.45 1163.15,2719.59 1163.15,2719.59L1172.03,2712.68Z" style="fill:white;stroke:white;stroke-width:4.87px;"/>
                            <path d="M875.942,2994.46L868.346,2983.95C868.346,2983.95 860.75,2980.64 863.821,2987.51C866.892,2994.38 870.367,2998.66 870.367,2998.66C870.367,2998.66 873.437,3008.84 862.771,3007.47C852.104,3006.09 849.437,2990.98 849.437,2990.98L852.023,2988.07L861.235,3001.73C861.235,3001.73 869.882,3004.64 865.68,2996.72C860.266,2989.37 858.892,2986.94 858.892,2986.94C858.892,2986.94 855.821,2977.73 866.811,2979.1C875.296,2985.97 879.013,2991.71 879.013,2991.71L875.942,2994.46Z" style="fill:white;stroke:white;stroke-width:4.87px;"/>
                            <path d="M868.185,3013.77L890.649,3002.78L894.69,3005.28L887.013,3030.66L883.458,3028.4L886.205,3019.59L878.932,3013.37L871.66,3016.76L868.185,3013.77Z" style="fill:white;stroke:white;stroke-width:4.87px;"/>
                            <path d="M883.619,3011.67L889.68,3007.95L887.74,3014.58L883.619,3011.67Z" style="fill:rgb(1,81,150);stroke:rgb(1,81,150);stroke-width:4.87px;"/>
                            <path d="M893.708,3035.02L906.961,3014.66L910.435,3017.89L897.506,3037.37L893.708,3035.02Z" style="fill:white;stroke:white;stroke-width:4.87px;"/>
                            <path d="M905.991,3042.7L917.062,3021.69L921.183,3023.71L924.738,3044.07L932.415,3029.53L936.213,3032.19L924.819,3052.96L921.506,3051.02L918.193,3030.25L909.627,3045.2L905.991,3042.7Z" style="fill:white;stroke:white;stroke-width:4.87px;"/>
                            <path d="M1019.61,3053.91C1019.61,3053.91 1005.06,3045.51 1002.64,3059.49C1002.39,3059.32 1002.72,3068.54 1011.53,3067.65C1011.61,3067.57 1018.15,3067.16 1018.23,3064.66L1018.32,3062.15L1010.48,3061.75L1010.32,3057.87L1022.19,3058.11L1022.19,3066.6C1022.19,3066.6 1017.51,3072.58 1011.45,3071.77C1010.88,3071.61 1000.13,3070.56 998.678,3062.96C998.597,3062.88 999.163,3055.53 999.163,3055.53C999.163,3055.53 1002.48,3045.59 1011.04,3046.64C1011.28,3046.47 1016.21,3046.96 1016.21,3046.96L1021.79,3050.76L1019.61,3053.91Z" style="fill:white;stroke:white;stroke-width:4.87px;"/>
                            <path d="M972.649,3053.77L981.214,3055.22L981.134,3059.43L971.679,3057.57L972.649,3053.77Z" style="fill:white;stroke:white;stroke-width:4.87px;"/>
                            <path d="M941.143,3059.59L947.769,3040.36L940.739,3037.2L941.87,3033.65L960.375,3040.68L959.809,3044.56L952.537,3041.97L945.587,3060.96L941.143,3059.59Z" style="fill:white;stroke:white;stroke-width:4.87px;"/>
                            <path d="M1028.58,3046.72L1031.49,3069.75L1051.2,3067.41L1050.96,3063.28L1035.2,3064.98L1034.56,3058.92L1041.75,3058.52L1041.43,3054.72L1033.51,3054.31L1033.18,3049.95L1048.05,3047.77L1048.13,3043.73L1028.58,3046.72Z" style="fill:white;stroke:white;stroke-width:4.87px;"/>
                            <path d="M1061.84,3064.33L1055.21,3042.68L1069.19,3037.67C1069.19,3037.67 1079.7,3036.54 1077.43,3047.28L1075.57,3050.27L1081.39,3056.98L1078.48,3059.89L1070.4,3051.89L1063.29,3054.64L1065.55,3062.39L1061.84,3064.33Z" style="fill:white;stroke:white;stroke-width:4.87px;"/>
                            <path d="M1060.14,3045.1L1061.84,3050.27L1073.8,3045.75C1073.8,3045.75 1074.28,3040.41 1071.29,3041.3C1068.3,3042.19 1060.14,3045.1 1060.14,3045.1Z" style="fill:rgb(1,81,150);stroke:rgb(1,81,150);stroke-width:4.87px;"/>
                            <path d="M1082.61,3033.3L1092.38,3053.43L1096.5,3051.32L1090.69,3039.61L1101.84,3046.64L1103.29,3046.56L1103.53,3032.17L1110.48,3044.54L1114.52,3042.68L1102.97,3022.07L1099.49,3024.25L1099.09,3039.2L1086.56,3030.88L1082.61,3033.3Z" style="fill:white;stroke:white;stroke-width:4.87px;"/>
                            <path d="M1120.33,3039.45L1115.16,3014.23L1118.8,3011.49L1140.13,3024.01L1137.22,3027.65L1130.59,3023.12L1122.67,3029.43L1124.53,3036.86L1120.33,3039.45Z" style="fill:white;stroke:white;stroke-width:4.87px;"/>
                            <path d="M1119.6,3017.3L1121.62,3024.25L1125.91,3021.02L1119.6,3017.3Z" style="fill:rgb(1,81,150);stroke:rgb(1,81,150);stroke-width:4.87px;"/>
                            <path d="M1146.58,3020.21L1149.32,3017.55L1133.08,2999.93L1130.17,3002.68L1146.58,3020.21Z" style="fill:white;stroke:white;stroke-width:4.87px;"/>
                            <path d="M1139.95,2994.27L1156.76,3010.03L1159.99,3006.72L1148.03,2995.81L1169.77,2996.29L1171.38,2994.11L1153.85,2978.03L1151.42,2981.02L1163.22,2992.25L1141.97,2991.61L1139.95,2994.27Z" style="fill:white;stroke:white;stroke-width:4.87px;"/>
                            <g transform="matrix(1,0,0,1,-0.752592,-0.903103)">
                                <path d="M1010.42,2651.66L1009.95,2670.6L1035.04,2670.6C1035.04,2670.6 1052.88,2659.39 1035.36,2651.35C1020.36,2651.66 1010.42,2651.66 1010.42,2651.66Z" style="fill:rgb(1,81,150);stroke:rgb(1,81,150);stroke-width:4.87px;"/>
                            </g>
                        </g>
                    </g>
                    <g id="mano">
                        <path d="M1379.33,2936.22C1379.33,2936.22 1378.25,2944.19 1379.07,2945.02C1379.9,2945.84 1385.64,2943.05 1390.35,2944.96C1390.61,2939.69 1391.02,2927.22 1391.02,2927.22C1391.02,2927.22 1391.74,2925 1383.73,2924.48M1383.73,2924.48L1383.73,2924.48Z" style="fill:rgb(222,201,168);stroke:black;stroke-width:0.15px;"/>
                        <g id="vape" transform="matrix(-0.17546,0,0,0.17546,1452.1,2546.01)">
                            <path d="M361.529,2170.71L349.913,2180.43L349.534,2187.25L394.375,2187.25L394.104,2179.8L383.12,2170.84L361.529,2170.71Z" style="fill:rgb(208,211,205);stroke:black;stroke-width:0.86px;"/>
                            <g transform="matrix(1.02247,0,0,1,-7.84051,-0.126262)">
                                <path d="M348.903,2210.86L393.599,2210.49L393.852,2189.78L349.155,2189.9L348.903,2210.86Z" style="fill:rgb(128,144,120);stroke:black;stroke-width:0.85px;"/>
                            </g>
                            <path d="M349.605,2187.07L349.161,2189.78L394.857,2189.4L394.47,2187.14L349.605,2187.07Z" style="fill:rgb(125,129,128);stroke:black;stroke-width:0.86px;"/>
                            <path d="M348.902,2210.33L348.498,2231.74C348.498,2231.74 384.155,2236.99 395.367,2232.55C394.761,2210.53 394.66,2210.13 394.66,2210.13L348.902,2210.33Z" style="fill:rgb(131,136,128);stroke:black;stroke-width:0.86px;"/>
                            <path d="M348.498,2231.74C348.498,2231.74 311.096,2232.02 343.451,2237.54C383.066,2237.07 395.692,2235.18 395.692,2235.18L398.848,2232.49L395.218,2231.86C395.218,2231.86 392.371,2237.46 348.498,2231.74Z" style="fill:rgb(209,209,207);stroke:black;stroke-width:0.86px;"/>
                            <path d="M346.922,2237.5L347.239,2348.18C347.239,2348.18 351.816,2354.02 355.446,2354.34C359.076,2354.65 395.1,2355.72 398.69,2349.28C398.967,2339.22 399.124,2232.06 399.124,2232.06L395.968,2234.74C395.968,2234.74 350.749,2239.15 346.922,2237.5Z" style="fill:rgb(125,69,56);stroke:black;stroke-width:0.86px;"/>
                            <path d="M330.499,2234.03L331.812,2346.46L337.873,2352.72L354.54,2356.05L354.742,2354.24C354.742,2354.24 348.277,2351.81 347.368,2348.18C347.368,2343.93 346.964,2237.57 346.964,2237.57L343.328,2237.27C343.328,2237.27 332.216,2235.75 330.499,2234.03Z" style="fill:rgb(162,164,153);stroke:black;stroke-width:0.86px;"/>
                            <path d="M349.281,2189.9L394.104,2190.03L394.357,2192.3C394.357,2192.3 374.408,2189.15 378.574,2207.96C375.544,2208.47 366.327,2208.21 366.327,2208.21C366.145,2208.57 373.013,2191.37 349.408,2192.05C349.155,2189.65 349.281,2189.9 349.281,2189.9Z" style="fill:rgb(234,235,230);stroke:black;stroke-width:0.86px;"/>
                            <path d="M331.711,2268.18L345.348,2271.41L345.55,2321.71L332.115,2317.77L331.711,2268.18Z" style="fill:rgb(14,26,24);stroke:black;stroke-width:0.86px;"/>
                            <path d="M335.348,2335.85L342.317,2339.39L341.812,2342.22L335.045,2339.99L335.348,2335.85Z" style="fill:rgb(28,30,27);stroke:black;stroke-width:0.86px;"/>
                            <path d="M337.368,2246.46C337.368,2246.46 324.338,2253.83 337.671,2266.26C346.762,2258.88 345.853,2247.57 337.368,2246.46Z" style="fill:rgb(90,94,43);stroke:black;stroke-width:0.86px;"/>
                            <path d="M339.691,2328.08L340.196,2333.33L345.045,2334.14L345.247,2330.1L339.691,2328.08Z" style="fill:rgb(28,30,27);stroke:black;stroke-width:0.86px;"/>
                            <path d="M332.924,2326.36L338.075,2329.09L338.075,2333.53L333.429,2331.51L332.924,2326.36Z" style="fill:rgb(28,30,27);stroke:black;stroke-width:0.86px;"/>
                            <path d="M361.15,2155.69L361.403,2171.22L382.993,2170.97L382.993,2155.18L361.15,2155.69Z" style="fill:rgb(63,64,66);stroke:black;stroke-width:0.86px;"/>
                            <path d="M375.67,2219.52C375.67,2219.52 370.922,2222.05 375.973,2223.16C384.054,2222.95 392.437,2221.94 392.437,2221.94L392.437,2219.62L375.67,2219.52Z" style="fill:rgb(33,33,29);stroke:black;stroke-width:0.86px;"/>
                        </g>
                        <path d="M1379.46,2936.36C1379.54,2936.35 1379.46,2936.36 1379.46,2936.36ZM1383.71,2924.85L1383.91,2919.7L1367.65,2919.8L1367.24,2925.45C1367.24,2925.45 1355.63,2931.41 1357.75,2940.91C1358.05,2952.02 1356.94,2962.52 1364.82,2962.73C1373.81,2962.93 1392.8,2966.87 1393.81,2947.47C1391.38,2943.84 1383.1,2944.34 1379.06,2945.25C1378.25,2943.33 1378.76,2940.1 1379.46,2936.36" style="fill:rgb(222,201,168);stroke:black;stroke-width:0.15px;"/>
                    </g>
                    <g id="mano1" serif:id="mano" transform="matrix(-1,0,0,1,2854.26,-3.08259)">
                        <path d="M1379.33,2936.22C1379.33,2936.22 1378.25,2944.19 1379.07,2945.02C1379.9,2945.84 1385.64,2943.05 1390.35,2944.96C1390.61,2939.69 1391.02,2927.22 1391.02,2927.22C1391.02,2927.22 1391.74,2925 1383.73,2924.48M1383.73,2924.48L1383.73,2924.48Z" style="fill:rgb(222,201,168);stroke:black;stroke-width:0.15px;"/>
                        <path d="M1379.46,2936.36C1379.54,2936.35 1379.46,2936.36 1379.46,2936.36ZM1383.71,2924.85L1383.91,2919.7L1367.65,2919.8L1367.24,2925.45C1367.24,2925.45 1355.63,2931.41 1357.75,2940.91C1358.05,2952.02 1356.94,2962.52 1364.82,2962.73C1373.81,2962.93 1392.8,2966.87 1393.81,2947.47C1391.38,2943.84 1383.1,2944.34 1379.06,2945.25C1378.25,2943.33 1378.76,2940.1 1379.46,2936.36" style="fill:rgb(222,201,168);stroke:black;stroke-width:0.15px;"/>
                    </g>
                </g>
                <g id="cabeza">
                    <g id="cara">
                        <path id="cabeza1" serif:id="cabeza" d="M1357.9,2754.77C1357.9,2754.77 1359.49,2831.54 1371.36,2847.57C1383.23,2863.6 1387.59,2872.37 1394.71,2876.26C1403.41,2882.33 1491.62,2889.85 1497.6,2840.58C1497.44,2790.52 1497.05,2754.9 1497.05,2754.9L1357.9,2754.77Z" style="fill:rgb(222,201,168);stroke:black;stroke-width:0.3px;"/>
                        <g id="ceja" transform="matrix(1.18584,0,0,1.18584,-265.253,-516.02)">
                            <path d="M1415.95,2782.86C1415.89,2773.71 1433.72,2777.34 1433.72,2777.34L1433.78,2781.23C1433.78,2781.23 1420.17,2776.5 1415.95,2782.86Z" style="stroke:black;stroke-width:0.13px;"/>
                        </g>
                        <path d="M1446.11,2821.7C1446.11,2821.7 1448.78,2814.68 1455.76,2822.14C1451.07,2822.76 1446.11,2821.7 1446.11,2821.7Z" style="fill:rgb(32,32,32);stroke:black;stroke-width:0.15px;"/>
                        <g id="ceja1" serif:id="ceja" transform="matrix(-1.18584,0,0,1.18584,3162.56,-515.533)">
                            <path d="M1415.95,2782.86C1415.89,2773.71 1433.72,2777.34 1433.72,2777.34L1433.78,2781.23C1433.78,2781.23 1420.17,2776.5 1415.95,2782.86Z" style="stroke:black;stroke-width:0.13px;"/>
                        </g>
                        <path d="M1437.78,2834.49C1442.3,2832.16 1463.92,2831.74 1466.62,2834.7C1464.81,2830.24 1457.54,2825.68 1451.68,2825.99C1445.82,2826.3 1439.49,2831.43 1437.78,2834.49Z" style="fill:rgb(1,1,1);stroke:black;stroke-width:0.15px;"/>
                        <g transform="matrix(0.756476,0,0,0.756476,354.281,695.907)">
                            <path d="M1444.83,2858.14L1459.93,2858.08L1457.08,2865.34L1455.53,2869.29L1452.54,2865.08L1448.52,2869.55L1444.83,2858.14Z" style="stroke:black;stroke-width:0.4px;"/>
                        </g>
                        <g id="nariz" transform="matrix(1.0916,0,0,1.0916,-132.467,-256.005)">
                            <path d="M1446.24,2794.91L1459.11,2811.73C1459.11,2811.73 1467.61,2817.67 1455.15,2819.85C1449.61,2815.29 1448.42,2816.68 1446.44,2818.86C1444.46,2821.03 1455.15,2819.85 1455.15,2819.85" style="fill:none;stroke:black;stroke-width:0.28px;"/>
                        </g>
                        <g id="oreja" transform="matrix(1.78182,0,0,1.78182,-1102.55,-2226.76)">
                            <path d="M1398.28,2813.91C1394.08,2809.45 1388.42,2808.15 1386.51,2814.12C1387.13,2820.86 1388.79,2825.43 1392.11,2827.81C1395.79,2828.9 1396.15,2827.76 1396.15,2826.15" style="fill:none;"/>
                            <clipPath id="_clip1">
                                <path d="M1398.28,2813.91C1394.08,2809.45 1388.42,2808.15 1386.51,2814.12C1387.13,2820.86 1388.79,2825.43 1392.11,2827.81C1395.79,2828.9 1396.15,2827.76 1396.15,2826.15"/>
                            </clipPath>
                            <g clip-path="url(#_clip1)">
                                <g transform="matrix(0.796256,0,0,0.796256,294.913,593.848)">
                                    <path d="M1377.96,2790.98C1376.46,2795.6 1375.58,2797.1 1377.86,2798.86C1379.83,2800.42 1379.83,2798.35 1380.4,2797.67" style="fill:none;stroke:black;stroke-width:0.21px;"/>
                                </g>
                                <g transform="matrix(0.561223,0,0,0.561223,618.778,1249.71)">
                                    <path d="M1373.29,2792.74C1376.1,2789.32 1381.33,2791.29 1382.53,2792.48" style="fill:none;stroke:black;stroke-width:0.3px;"/>
                                </g>
                                <g transform="matrix(0.408413,0,0,0.408413,831.11,1672.64)">
                                    <path d="M1378.68,2821.67L1382.78,2825.77L1378.94,2829.6L1375.23,2825.89L1378.68,2821.67Z" style="fill:rgb(225,218,218);stroke:black;stroke-width:0.21px;"/>
                                </g>
                            </g>
                            <path d="M1398.28,2813.91C1394.08,2809.45 1388.42,2808.15 1386.51,2814.12C1387.13,2820.86 1388.79,2825.43 1392.11,2827.81C1395.79,2828.9 1396.15,2827.76 1396.15,2826.15" style="fill:none;stroke:black;stroke-width:0.17px;"/>
                        </g>
                        <g id="ojo" transform="matrix(1,0,0,1,45.9701,0.842894)">
                            <path d="M1416.83,2793.81L1417.07,2809.69L1434.41,2809.56L1434.21,2793.48L1416.83,2793.81Z" style="fill:rgb(250,249,249);stroke:black;stroke-width:0.3px;"/>
                            <g id="pupila" transform="matrix(0.859859,0,0,0.859859,202.012,386.002)">
                                <path d="M1419.44,2809.56C1418.35,2803.37 1427.94,2795.99 1431.18,2809.69C1428.87,2820.35 1421.16,2819.28 1419.44,2809.56Z" style="fill:rgb(136,121,24);"/>
                                <clipPath id="_clip2">
                                    <path d="M1419.44,2809.56C1418.35,2803.37 1427.94,2795.99 1431.18,2809.69C1428.87,2820.35 1421.16,2819.28 1419.44,2809.56Z"/>
                                </clipPath>
                                <g clip-path="url(#_clip2)">
                                    <g transform="matrix(1.16298,0,0,1.16298,-234.841,-450.892)">
                                        <ellipse cx="1427.78" cy="2803.56" rx="2.229" ry="2.999" style="stroke:black;stroke-width:0.3px;"/>
                                    </g>
                                </g>
                                <path d="M1419.44,2809.56C1418.35,2803.37 1427.94,2795.99 1431.18,2809.69C1428.87,2820.35 1421.16,2819.28 1419.44,2809.56Z" style="fill:none;stroke:black;stroke-width:0.18px;"/>
                            </g>
                            <path d="M1416.84,2793.74C1416.84,2793.74 1416.71,2788.56 1416.84,2788.56C1416.97,2788.56 1425.46,2773.58 1434.28,2788.95C1434.21,2792.84 1434.21,2793.42 1434.21,2793.42L1416.84,2793.74Z" style="fill:rgb(229,216,152);stroke:black;stroke-width:0.3px;"/>
                        </g>
                        <g id="ojo1" serif:id="ojo" transform="matrix(1,0,0,1,0.262209,0.249284)">
                            <path d="M1416.83,2793.81L1417.07,2809.69L1434.41,2809.56L1434.21,2793.48L1416.83,2793.81Z" style="fill:rgb(250,249,249);stroke:black;stroke-width:0.3px;"/>
                            <g id="pupila1" serif:id="pupila" transform="matrix(0.859859,0,0,0.859859,202.012,386.002)">
                                <path d="M1419.44,2809.56C1418.35,2803.37 1427.94,2795.99 1431.18,2809.69C1428.87,2820.35 1421.16,2819.28 1419.44,2809.56Z" style="fill:rgb(136,121,24);"/>
                                <clipPath id="_clip3">
                                    <path d="M1419.44,2809.56C1418.35,2803.37 1427.94,2795.99 1431.18,2809.69C1428.87,2820.35 1421.16,2819.28 1419.44,2809.56Z"/>
                                </clipPath>
                                <g clip-path="url(#_clip3)">
                                    <g transform="matrix(1.16298,0,0,1.16298,-234.841,-450.892)">
                                        <ellipse cx="1427.78" cy="2803.56" rx="2.229" ry="2.999" style="stroke:black;stroke-width:0.3px;"/>
                                    </g>
                                </g>
                                <path d="M1419.44,2809.56C1418.35,2803.37 1427.94,2795.99 1431.18,2809.69C1428.87,2820.35 1421.16,2819.28 1419.44,2809.56Z" style="fill:none;stroke:black;stroke-width:0.18px;"/>
                            </g>
                            <path d="M1416.84,2793.74C1416.84,2793.74 1416.71,2788.56 1416.84,2788.56C1416.97,2788.56 1425.46,2773.58 1434.28,2788.95C1434.21,2792.84 1434.21,2793.42 1434.21,2793.42L1416.84,2793.74Z" style="fill:rgb(229,216,152);stroke:black;stroke-width:0.3px;"/>
                        </g>
                        <g transform="matrix(1.00492,0,0,1,-6.98799,-0.46365)">
                            <path d="M1358.08,2755.15L1359.05,2772.83L1381.74,2774.12C1412.38,2773.6 1425.45,2767.63 1442.15,2768.17L1442.15,2755.24L1358.08,2755.15Z" style="fill:rgb(3,3,3);stroke:black;stroke-width:0.15px;"/>
                        </g>
                        <g id="boca" transform="matrix(1,0,0,1,0.966169,6.2801)">
                            <path d="M1436.24,2834.41C1438.58,2822.6 1450.55,2833.27 1453.46,2833.4C1456.38,2833.53 1463.85,2823.14 1467.65,2833.9C1469.85,2840.15 1461.44,2842.64 1453.72,2842.39C1445.99,2842.14 1434.77,2841.82 1436.24,2834.41Z" style="fill:rgb(207,127,127);stroke:black;stroke-width:0.3px;"/>
                            <path d="M1468.28,2835.42C1462.02,2837.33 1446.14,2835.61 1436.75,2835.42" style="fill:rgb(207,127,127);stroke:black;stroke-width:0.3px;"/>
                        </g>
                    </g>
                    <g id="gorra">
                        <path d="M1496.92,2754.99C1429.33,2755.06 1420.76,2755.07 1420.76,2755.07C1420.76,2755.07 1480.16,2793.15 1497.15,2796.1C1515.86,2805.12 1563.22,2777.76 1496.92,2754.99Z" style="fill:rgb(43,59,100);stroke:black;stroke-width:0.3px;"/>
                        <path d="M1357.86,2754.83C1389.39,2754.74 1496.91,2754.83 1496.91,2754.83C1496.91,2754.83 1492.53,2722.15 1467.49,2720.36C1442.85,2719.96 1396.74,2720.76 1396.74,2720.76C1396.74,2720.76 1356.93,2720.54 1357.86,2754.83Z" style="fill:rgb(43,59,100);stroke:black;stroke-width:0.3px;"/>
                        <path d="M1420.32,2720.34C1420.32,2720.34 1416.52,2714.97 1423.42,2712.8C1430.58,2714.21 1428.08,2720.29 1428.08,2720.29L1420.32,2720.34Z" style="fill:rgb(43,59,100);stroke:black;stroke-width:0.3px;"/>
                        <g id="letras_gorra" transform="matrix(0.734864,0,0,0.734864,393.907,729.2)">
                            <g transform="matrix(0.362958,0,0,0.362958,1059.9,1942.21)">
                                <path d="M1075.91,2168.9L1075.91,2208.6L1112.16,2208.6L1112.16,2198L1087.26,2198L1087.26,2168.41L1075.91,2168.9Z" style="fill:white;stroke:white;stroke-width:0.57px;"/>
                            </g>
                            <g transform="matrix(0.362958,0,0,0.362958,1059.9,1942.21)">
                                <path d="M1032.43,2167.91C1032.43,2167.91 1033.42,2200.96 1033.17,2210.82C1080.03,2212.8 1082,2182.96 1032.43,2167.91Z" style="fill:white;stroke:white;stroke-width:0.57px;"/>
                            </g>
                            <g transform="matrix(0.145582,0,0,0.145582,1288.26,2418.65)">
                                <path d="M1032.43,2167.91C1032.43,2167.91 1033.42,2200.96 1033.17,2210.82C1080.03,2212.8 1082,2182.96 1032.43,2167.91Z" style="fill:rgb(43,59,100);stroke:rgb(18,16,17);stroke-width:1.41px;"/>
                            </g>
                            <g transform="matrix(0.362958,0,0,0.362958,1059.9,1942.21)">
                                <path d="M970.672,2211.85L970.672,2167.46L996.122,2182.85L1019.48,2168.4L1019.48,2210.75L1011.44,2210.75L1011.44,2186.25L995.908,2194.84L978.484,2186L978.484,2211.63L970.672,2211.85Z" style="fill:white;stroke:white;stroke-width:0.57px;"/>
                            </g>
                            <g transform="matrix(0.362958,0,0,0.362958,1059.9,1942.21)">
                                <path d="M1122.52,2207.37L1122.52,2168.16C1122.52,2168.16 1168.64,2168.16 1140.52,2189.86C1160.25,2206.14 1161.24,2206.88 1161.24,2206.88L1144.22,2206.88L1132.88,2194.05L1132.88,2206.88L1122.52,2207.37Z" style="fill:white;stroke:white;stroke-width:0.57px;"/>
                            </g>
                            <g transform="matrix(0.105812,0.000292956,-0.000292956,0.105812,1361.9,2501.27)">
                                <path d="M1032.43,2167.91C1032.43,2167.91 1033.42,2200.96 1033.17,2210.82C1080.03,2212.8 1082,2182.96 1032.43,2167.91Z" style="fill:rgb(43,59,100);stroke:rgb(18,16,17);stroke-width:1.94px;"/>
                            </g>
                        </g>
                    </g>
                </g>
                <g transform="matrix(0.362958,0,0,0.362958,1059.9,1942.21)">
                    <path d="M1007.89,2778.93L1007.89,2792.42L1013.19,2792.9L1013.19,2881.53L1034.38,2881.04L1032.94,2779.9L1007.89,2778.93Z" style="fill:rgb(4,4,4);fill-opacity:0.13;stroke:rgb(71,70,71);stroke-opacity:0;stroke-width:0.42px;"/>
                </g>
                <g transform="matrix(0.362958,0,0,0.362958,1059.9,1942.21)">
                    <path d="M842.015,2452.19C842.015,2452.19 854.285,2490.35 858.12,2494.41C861.955,2498.85 901.643,2558.96 920.138,2571.3C942.411,2585.55 1015.97,2587.73 1012.42,2584.78C1004.49,2587.43 854.668,2490.47 842.015,2452.19Z" style="fill:rgb(196,159,100);fill-opacity:0.37;stroke:rgb(71,70,71);stroke-opacity:0;stroke-width:0.42px;"/>
                </g>
                <g transform="matrix(0.362958,0,0,0.362958,1059.9,1942.21)">
                    <path d="M983.844,2913.51C983.844,2913.51 974.813,2912.3 982.038,2927.36C989.263,2942.41 998.294,2944.82 998.294,2944.82C1018.66,2945.47 1018.66,2935.93 994.079,2914.11L983.844,2913.51Z" style="fill:rgb(26,25,25);fill-opacity:0.5;stroke:rgb(71,70,71);stroke-opacity:0;stroke-width:0.42px;"/>
                </g>
                <g transform="matrix(0.362958,0,0,0.362958,1101.64,1940.89)">
                    <path d="M983.844,2913.51C983.844,2913.51 974.813,2912.3 982.038,2927.36C989.263,2942.41 998.294,2944.82 998.294,2944.82C1018.66,2945.47 1018.66,2935.93 994.079,2914.11L983.844,2913.51Z" style="fill-opacity:0.36;stroke:rgb(71,70,71);stroke-opacity:0;stroke-width:0.42px;"/>
                </g>
            </g>
        </g>
    </g>
</svg>
