<svg viewBox="0 0 1153 1817" xmlns="http://www.w3.org/2000/svg" xml:space="preserve" style="fill-rule:evenodd;clip-rule:evenodd;stroke-linecap:round;stroke-linejoin:round;stroke-miterlimit:1.5"><g transform="matrix(-45.4543 0 0 45.4543 71442.221 -53563.15)"><g id="finalboss-jfortega"><g id="piernas"><path d="M1550.96 1211.27c.11-.01-.05 1.98.78 3.68.6 1.21.92 2.19.99 2.28 2.8 0 4.02.08 4.02.08l.6-1.64 5.78-.11.1 1.59h3.2c.23-.32.81-1.07 1.4-2.47.39-.95.3-1.86.59-3.49-5.99 3.26-11.22 3.28-17.46.08Z" style="fill:#294f72;stroke:#000;stroke-width:.18px" transform="matrix(.92564 0 0 .9475 116.221 63.216)" id="pantalones"/><g id="zapatos"><g id="zapato-izq"><path id="zapato" d="M1557.42 1217.04c0-.21-.17-.38-.39-.38h-3.21c-.22 0-.39.17-.39.38v.77c0 .22.17.39.39.39h3.21c.22 0 .39-.17.39-.39v-.77Z" style="fill:#020202;stroke:#000;stroke-width:.34px"/><path d="m1534.98 1206.96 2.19 1.54" style="fill:none;stroke:#fff;stroke-width:.34px" transform="rotate(-34.992 1560.636 1181.707)" id="cordon"/></g><g id="zapato-dcho" transform="translate(9.27 -.153)"><path id="zapato1" d="M1557.42 1217.04c0-.21-.17-.38-.39-.38h-3.21c-.22 0-.39.17-.39.38v.77c0 .22.17.39.39.39h3.21c.22 0 .39-.17.39-.39v-.77Z" style="fill:#020202;stroke:#000;stroke-width:.34px"/><path d="m1534.98 1206.96 2.19 1.54" style="fill:none;stroke:#fff;stroke-width:.34px" transform="rotate(-34.992 1560.636 1181.707)" id="cordon1"/></g></g><path id="agujero" d="m1554.08 1215.09.45-1.29.41.32.34-.37-.15 1.47-.43-.56-.62.43Z" style="fill:#e18968;stroke:#000;stroke-width:.17px"/></g><g id="torso"><g id="brazo-dcho" transform="translate(-.32 -.32)"><g id="cadena"><path d="M1590.47 1197.98c0-.75-.54-1.36-1.2-1.36h-6.69c-.67 0-1.2.61-1.2 1.36v2.71c0 .75.53 1.36 1.2 1.36h6.69c.66 0 1.2-.61 1.2-1.36v-2.71Z" style="fill:#ff4e00;fill-opacity:0;stroke:#000;stroke-width:1.8px;stroke-linecap:square" transform="matrix(.06392 .28907 -.25629 .05667 1776.83 686.04)"/><path d="M1590.47 1197.98c0-.75-.54-1.36-1.2-1.36h-6.69c-.67 0-1.2.61-1.2 1.36v2.71c0 .75.53 1.36 1.2 1.36h6.69c.66 0 1.2-.61 1.2-1.36v-2.71Z" style="fill:#ff4e00;fill-opacity:0;stroke:#000;stroke-width:1.8px;stroke-linecap:square" transform="matrix(-.0253 .29497 -.26152 -.02243 1924.78 775.262)"/><path d="M1587.53 1200.59h1.76" style="fill:none;stroke:#000;stroke-width:.5px;stroke-linecap:square" transform="rotate(72.216 1572.244 1193.503)"/><path d="M1587.53 1200.59h1.76" style="fill:none;stroke:#000;stroke-width:.5px;stroke-linecap:square" transform="rotate(91.744 1573.161 1199.033)"/><path d="M1590.47 1197.98c0-.75-.54-1.36-1.2-1.36h-6.69c-.67 0-1.2.61-1.2 1.36v2.71c0 .75.53 1.36 1.2 1.36h6.69c.66 0 1.2-.61 1.2-1.36v-2.71Z" style="fill:#ff4e00;fill-opacity:0;stroke:#000;stroke-width:1.8px;stroke-linecap:square" transform="matrix(.26856 .12458 -.11046 .2381 1275.65 726.339)"/></g><path d="M1569.49 1199.96s.86 4.91.13 8.75c0 0 .53.64.49 1-.02.15-.14.66-.33.83-.26.22-.68.28-.91.27-.18 0-.86.02-1.14-.24-.32-.3-.22-.89-.17-1.08.08-.32.67-.66.67-.66l1.26-8.87Z" style="fill:#e18968;stroke:#000;stroke-width:.17px" transform="rotate(-9.219 1568.418 1209.044)" id="brazo-dcho1"/></g><path d="M1549.38 1207.86s.8.56 2.29 1.18c.95.39 2.16.81 3.63 1.12 1.19.26 2.56.45 4.07.51 3.49.12 5.64-.42 7.47-1.66.7-.48 1.35-1.06 2.02-1.74l.13 3.43c.39 0-9.35 6.33-19.56 0 0-.32 0-.61-.01-.86 0-1.95-.04-1.98-.04-1.98Z" style="fill:#740000;stroke:#000;stroke-width:.21px" transform="matrix(.85473 0 0 .76487 227.216 285.149)" id="bajacamisa"/><path id="base-cami" d="m1550.94 1198.77.24 11.03s4.91 2.46 8.1 2.46c3.18 0 9.07-2.85 9.07-2.85l-.2-10.3-17.21-.34Z" style="fill:#1d428a;stroke:#000;stroke-width:.34px"/><path d="M1546.07 1199.82s.49-.36 1.2-.3c.47.05 2.02.58 1.92.83-.77 2.03.05 5.45 2.23 4.84v2.93c.43.04-6.01.6-5.35-8.3Z" style="fill:#e18968;stroke:#000;stroke-width:.16px" transform="matrix(1.02537 .27298 -.25842 .97068 274.857 -386.164)" id="brazo"/><path id="hombro" d="M1553.19 1202.5s-.97-.74-2.1-1.03c-1.13-.3-1.87-.35-1.87-.35s1.81-1.63 2.6-1.32c2.01.79 1.37 2.7 1.37 2.7Z" style="fill:#1d428a;stroke:#000;stroke-width:.34px"/><path d="m1568.2 1202.48.83-.52s-.08-1.29-.62-1.34c-.54-.05-.21 1.86-.21 1.86Z" style="fill:#1d428a;stroke:#000;stroke-width:.34px" transform="translate(-.08 1.197)" id="hombro1"/><g id="logo-nba" transform="matrix(.01469 0 0 .01469 1539.63 1198.24)"><path id="soporte" d="M1334.17 710.906v45.612l19.89 8.996-2.37-48.769-17.52-5.839Z" style="fill:#fdb927"/><path id="frame-puente" d="m1235.26 621.103-1.33-8.984c3.07-2.266 17.33-15.321 30.49-31.928 20.25-25.532 42.48-61.364 47.71-70.965v-15.058l3.94-2.357v-4.579l10.24-2.627v13.132h8.01v-12.458l9.63 2.222v22.357s57.06 56.518 92.2 77.999c17.55 10.725 46.88 28.578 76.67 42.354 41.14 19.028 81.84 32.883 81.84 32.883l-4.35 12.857s-43.14-15.503-79.57-34.049c-28.06-14.286-46.78-24.163-63.55-34.486-17.89-11.011-45.41-31.779-65.31-49.019-21.53-18.65-38.42-36.69-38.42-36.69l6.86 162.877 239.99-8.633-14.3 21.705-224.86-1.642v1.825l221.05 4.588-13.01 14.512-233.01-8.139v43.349l-21.78-17.505 2.13-26.915-30.63-.759-14.5-19.904 46.44-1.127 4.94-168.737s-14.2 27.488-25.93 44.798c-3.65 5.372-16.97 23.732-23.6 31.425-15.83 18.368-27.99 27.678-27.99 27.678Z" style="fill:#fdb927"/><g id="vigas-dcha"><path id="viga" d="m1568.35 677.089-5.73-12.4-7.71-3.195 7.24 15.783 6.2-.188Z" style="fill:#fdb927"/><path d="m1568.35 677.089-17.66-43.364-7.93-5.258 19.11 49.092 6.48-.47Z" style="fill:#fdb927" transform="translate(-50.459 2.294)" id="viga1"/><path d="m1568.35 677.089-22.06-60.841-7.52-4.478 23.38 65.507 6.2-.188Z" style="fill:#fdb927" transform="translate(-76.147 3.67)" id="viga2"/><path d="m1568.35 677.089-28.12-81.208-7.7-4.662 29.62 85.875 6.2-.005Z" style="fill:#fdb927" transform="translate(-99.77 4.587)" id="viga3"/><path d="m1567.25 677.273-31.61-101.575-8.07-5.213 33.84 107.343 5.84-.555Z" style="fill:#fdb927" transform="translate(-123.853 5.275)" id="viga4"/><path d="m1568.35 677.089-38.21-127.445-7.89-5.564 38.98 133.197 7.12-.188Z" style="fill:#fdb927" transform="translate(-147.706 6.651)" id="viga5"/><path d="m1568.35 677.089-45.37-158.822-8.25-7.598 47.42 166.608 6.2-.188Z" style="fill:#fdb927" transform="translate(-173.394 7.34)" id="viga6"/><path d="m1566.51 677.089-25.18-97.171-6.42-.992 26.14 98.902 5.46-.739Z" style="fill:#fdb927" transform="translate(-195.872 8.028)" id="viga7"/><path d="m1565.94 677.182-6.55-13.854-4.48-1.834 7.24 15.783 3.79-.095Z" style="fill:#fdb927" transform="matrix(1.7512 0 0 1.98819 -1199.25 -667.442)" id="viga8"/></g><g id="vigas-izq"><path id="viga9" d="m1291.24 687.198 20.36-76.705-.31-21.149-25.88 98.146 5.83-.292Z" style="fill:#fdb927"/><path d="m1289.75 687.258 49.23-176.394-8.21 6.471-46.84 170.155 5.82-.232Z" style="fill:#fdb927" transform="translate(-21.938 1.263)" id="viga10"/><path d="m1292.23 677.087 30.22-101.119-9.93 12.883-23.9 79.65 3.61 8.586Z" style="fill:#fdb927" transform="translate(-46.244 -3.314)" id="viga11"/></g><g id="espacios"><path id="espacio-6-logo" style="fill:#1d428a" d="M1326.12 520.66h7.997v7.155h-7.997z"/><path id="espacio-5-logo" style="fill:#1d428a" d="M1326.17 538.817h7.816v11.784h-7.816z"/><path id="espacio-4-logo" style="fill:#1d428a" d="M1326.09 561.268h8.057v11.604h-8.057z"/><path id="espacio-3-logo" style="fill:#1d428a" d="M1326.15 583.695h8.057v21.825h-8.057z"/><path id="espacio-2-logo" style="fill:#1d428a" d="M1326.21 616.342h7.876v22.306h-7.876z"/><path id="espacio-1-logo" style="fill:#1d428a" d="M1326.09 649.591h8.057v35.353h-8.057z"/><path d="M1413.22 388.897c104.05 0 188.54 45.314 188.54 101.128 0 55.815-84.49 101.129-188.54 101.129-104.06 0-188.54-45.314-188.54-101.129 0-55.814 84.48-101.128 188.54-101.128Zm0 6.068c97.81 0 177.22 42.595 177.22 95.06 0 52.466-79.41 95.061-177.22 95.061-97.82 0-177.23-42.595-177.23-95.061 0-52.465 79.41-95.06 177.23-95.06Z" style="fill:#fdb927" transform="matrix(1.06653 0 0 1.99225 -85.395 -390.586)" id="borde-logo"/></g></g></g><g id="cabeza" transform="translate(.4 2.075)"><path id="craneo" d="M1549.91 1180.52s1.87-4.91 8.71-4c6.84.9 9.88 2.9 10.26 5.58.39 2.68 1 7.92 1 7.92-.06 1.36-5.17 2.15-11.58 1.59-8.26-.73-11.92-5.42-8.39-11.09Z" style="fill:#e18968;stroke:#000;stroke-width:.17px"/><g id="ojo-izquierdo"><path id="ojo-izq" d="M1556.31 1186.18h6.41s-2.99 3.68-6.41 0Z" style="fill:#fff;stroke:#000;stroke-width:.17px"/><ellipse cx="1559.2" cy="1186.59" rx=".449" ry=".415" style="stroke:#000;stroke-width:.17px" id="pupila-izq" transform="matrix(1 0 0 .97325 0 31.752)"/></g><g id="ojo-derecho"><path d="M1562.22 1186.68c-.98.86-3.33 2.28-5.91-.5h5.81m0 0h.6s-.18.22-.5.5" style="fill:#fff;stroke:#000;stroke-width:.18px" transform="matrix(.91107 0 0 1 146.26 0)" id="ojo-dcho"/><ellipse cx="1559.2" cy="1186.59" rx=".449" ry=".415" style="stroke:#000;stroke-width:.17px" id="pupila-dcha" transform="matrix(1 0 0 .97325 7.83 31.752)"/></g><path id="nariz" d="m1563.58 1186.5.29 4.17-1.67.17" style="fill:none;stroke:#000;stroke-width:.17px"/><g id="barba"><path id="barba1" d="M1566.88 1191.21c.93-.09 2.51-.94 2.95-1.18.07-.05.12-.12.12-.07-.07.85-.52 3.93-.54 5.19-.02.8.02 2.48.08 3.2.05.66-.15 1.53-.79 1.98-1.28.92-6.54 2.68-6.5 2.82-5.7.14-11.56-3.43-12.75-7.22-.71-2.24-1.67-6.04-1.48-8.4.2-2.51.88-4.81.72-4.63 1.4 1.35 5.36 8.42 9.27 8.25 0 0 6.92.26 8.92.06Z" style="fill:#181818"/><path d="M1553 1188.29c-.3 3.91 1.1 8.14 2.31 12.73 1.03 1.45 3.99 2.66 7.79 2.63 4.65-1.25 5.22-3.95 4.96-7.17l-.05-5.57s-2.21.3-5.83.24c-4.39-.07-8.62-3.09-9.18-2.86Z" style="fill:#939393"/><g id="oreja"><path d="m1540.94 1194.29-.92 3.8c-.8.73-6.62-.39-5.21-3.92 1.88-4.29 3.93-4.25 6.13.12Z" style="fill:#e18968;stroke:#000;stroke-width:.49px" transform="matrix(.67254 -.15704 .15704 .67254 326.422 624.558)"/><path d="M1539.04 1195.7s-.06-2.64-1.29-2.82" style="fill:#e18968;stroke:#000;stroke-width:.49px" transform="matrix(.67254 -.15704 .15704 .67254 326.422 624.558)"/><path d="M1536.65 1193.68s1.41-.37 1.9.06" style="fill:#e18968;stroke:#000;stroke-width:.49px" transform="matrix(.67254 -.15704 .15704 .67254 326.422 624.558)"/></g><path id="boca" d="M1565.02 1193.69c-1.23-.32-2.58-.36-4.1 0" style="fill:none;stroke:#000;stroke-width:.34px"/><path d="M1562.68 1201.02s-.62 1.5-1.19 1.81" style="fill:none;stroke:#000;stroke-width:.17px" transform="translate(-.4 -2.075)" id="pelito"/><path d="m1563.87 1201.74.36 1.35" style="fill:none;stroke:#000;stroke-width:.17px" transform="translate(-.4 -2.075)" id="pelito1"/><path d="m1564.9 1201.17.99.42" style="fill:none;stroke:#000;stroke-width:.17px" transform="translate(-.4 -2.075)" id="pelito2"/><path d="m1569.95 1195.36.47-.26" style="fill:none;stroke:#000;stroke-width:.17px" transform="translate(-.4 -2.075)" id="pelito3"/><path d="m1569.89 1195.79.42.08" style="fill:none;stroke:#000;stroke-width:.17px" transform="translate(-.4 -2.075)" id="pelito4"/></g><g id="brazo-izquierdo" transform="matrix(1.32313 .35226 -.33347 1.25256 -96.78 -851.44)"><g id="vaper" transform="matrix(.13453 0 0 .08786 1381.08 1107.36)"><path id="cuerpo-vaper" d="M1275.92 1111.12h15.62c1.76 1.07 3.87 2.04 3.87 3.87v33.22s.28.51-.86 1.64c-1.14 1.14-6.1 2.8-6.1 2.8s-12.52-.57-12.36-2.07l-.17-39.46Z" style="fill:#6e6060;stroke:#000;stroke-width:1.1px"/><path id="pitorro-vaper" d="M1276.19 1110.89h11.88v-16.56s-6.95-.73-11.8 0l-.08 16.56Z" style="fill:#b4a3a3;stroke:#000;stroke-width:1.1px"/><ellipse cx="1299.94" cy="1110.37" rx="1.496" ry="2.847" style="fill:red;fill-opacity:0;stroke:#000;stroke-width:1.3px" id="boton" transform="matrix(.8453 0 0 .8453 194.638 179.244)"/><path d="M1278.56 1093.68c2.43-.27 4.81-.27 7.15 0v-6.76c-2.14-.62-4.51-.69-7.18 0l.03 6.76Z" style="fill:#e4e4e4;stroke:#000;stroke-width:1.1px" transform="translate(.077 .405)" id="boquilla"/></g><path d="M1557.12 1210.17s1.89-.16 1.89-2.71c.04-.08-.08-2.37-1.13-2.37 0 0-2.85-1.07-4.39.33l-.07 3.92s1.05 1.26 3.7.83Z" style="fill:#e18968;stroke:#000;stroke-width:.28px" transform="matrix(.35507 -.00411 .00572 .55097 993.644 547.891)" id="mano"/><path d="M1553.35 1204.53c0-.28-.22-.51-.48-.51h-.96c-.27 0-.48.23-.48.51v4.78c0 .28.21.5.48.5h.96c.26 0 .48-.22.48-.5v-4.78Z" style="fill:#ff4e00;stroke:#000;stroke-width:.3px" transform="matrix(.42371 0 0 .42371 893.982 695.323)" id="pulsera"/><g id="tatuaje" transform="translate(.996 1.165)"><path d="M1537.6 1198.71c3.39-4.93 6.5 2.14.64 5.11-7.15-1.61-5.33-7.75-.64-5.11Z" style="fill:red;stroke:#000;stroke-width:.55px" transform="matrix(.21135 -.07715 .07316 .22365 1134.56 1052.53)" id="tatucorazon"/><g id="joker"><text x="1534.86" y="1201.55" style="font-family:InkFree,Ink Free,cursive;font-size:54.603px" transform="matrix(-.00974 .00683 .0059 .00999 1555.89 1179.61)">Joker</text></g></g></g><ellipse cx="1563.13" cy="1179.22" rx="1.953" ry="1.111" style="fill:#d5c2c2;stroke:#000;stroke-opacity:0;stroke-width:.18px" id="reflejo" transform="matrix(.97155 .2334 -.19211 .79969 271.077 -128.807)"/><g id="cejas"><path d="M1537.58 1183.57s2.35-.14 3.3-.05c.95.08 2.49.75 2.49.75" style="fill:none;stroke:#000;stroke-width:1.01px" transform="translate(19.075 1.117)" id="ceja-izq"/><path id="ceja-dcha" d="m1564.78 1185.44 4.34-.2" style="fill:none;stroke:#000;stroke-width:1.01px"/></g><path d="m1549.47 1185.1 1.83 2.03" style="fill:none;stroke:#000;stroke-width:.17px" transform="translate(-.4 -2.075)" id="arruga-1"/><path d="m1549.69 1184.72 1.63 1.31" style="fill:none;stroke:#000;stroke-width:.17px" transform="translate(-.4 -2.075)" id="arruga-2"/><path d="M1562.81 1189.13s-.34.49-.98.68" style="fill:none;stroke:#000;stroke-width:.17px" transform="translate(-.4 -2.075)" id="ojera"/><path d="M1561.25 1184.35s2.54.93 2.78 1.36c0 0 2.61-1.79 3.17-1.65" style="fill:none;stroke:#000;stroke-width:.17px" transform="translate(-.4 -2.075)" id="arruga-frente"/><path d="M1562.24 1183.53s1.75.39 1.82.72c0 0 .63-.33.86-.33" style="fill:none;stroke:#000;stroke-width:.17px" transform="translate(-.4 -2.075)" id="arruga-frente1"/><path d="M1560.18 1195.87s.04.74.29.96c.24.21.8.02.8.02" style="fill:none;stroke:#000;stroke-width:.17px" transform="translate(-.167 -2.307)" id="arruga-boca"/><path d="m1562.03 1189.18-4.15.03s.71.67 1.99.67c1.27 0 2.16-.7 2.16-.7Z" style="fill:#e18968;stroke:#000;stroke-width:.17px" transform="translate(-.4 -2.075)" id="parpado"/><g id="angry" transform="translate(-.4 -2.075)"><path id="enfado-1" d="M1553.4 1183.68c.09-.81-.19-1.18-.99-.93" style="fill:none;stroke:#000;stroke-width:.17px"/><path id="enfado-2" d="M1552.48 1182.09s1.35.56 1.19-.76" style="fill:none;stroke:#000;stroke-width:.17px"/><path id="enfado-3" d="M1554.2 1181.26s-.53 1.39.66 1.1" style="fill:none;stroke:#000;stroke-width:.17px"/><path id="enfado-4" d="M1553.93 1183.75s-.29-1.36.8-.93" style="fill:none;stroke:#000;stroke-width:.17px"/></g></g></g></g></svg>