<svg viewBox="0 0 479 876" xmlns="http://www.w3.org/2000/svg" xml:space="preserve" style="fill-rule:evenodd;clip-rule:evenodd;stroke-linecap:round;stroke-linejoin:round;stroke-miterlimit:1.5"><g transform="translate(-3739.87 -7473.71) scale(2.75514)"><g id="personaje_completo"><g id="cuerpo"><g id="pantalones"><path d="m1143.31 2892.33.56 36.18 72.21-2.17-2.96-35.51-69.81 1.5" style="fill:#fff;stroke:#121011;stroke-width:.42px" transform="matrix(.36296 0 0 .36296 976.665 1937.15)"/><path d="m1143.31 2892.33.56 36.18 72.21-2.17-2.96-35.51-69.81 1.5" style="fill:#fff;stroke:#121011;stroke-width:.42px" transform="matrix(.36296 0 0 .36296 1020.63 1937.51)"/><path id="pantalones1" d="m1384.69 2941.5-.08 46.66 35.17-.46-.08-31.61 7.7.08.48 31.53 36.34.73-.47-48.13-79.06 1.2Z" style="fill:#1f273c;stroke:#000;stroke-width:.3px"/><g id="rayas"><path d="M1419.61 2957.14v3.5l-34.76 4.99v-3.17l34.76-5.32Z" style="fill:#fff;stroke:#000;stroke-width:.15px"/><path d="M1419.61 2957.14v3.5l-34.76 4.99v-3.17l34.76-5.32Z" style="fill:#f12d39;stroke:#000;stroke-width:.15px" transform="translate(.26 3.527)"/><path d="M1419.61 2957.14v3.5l-34.76 4.99v-3.17l34.76-5.32Z" style="fill:#fff;stroke:#000;stroke-width:.15px" transform="translate(.363 7.054)"/></g><path d="M1001.35 2416.68c-1.544 1.54 32.98 1.23 35.45-31.14-.31 0 2.77-30.21-29.29-36.37-.61.31-34.214-5.86-38.53 32.98-.308.31-.308 20.96 11.406 34.84 1.85 8.01 2.774 10.78 2.774 10.78l-6.781 31.76s-3.699.92-4.316 6.78l-5.24 18.49 1.541 2.47-7.398 14.18s-1.233 4.93.308 9.55c-2.158 5.55-10.137 31.54-10.137 31.54s-11.363 9.6-11.237 14.01c-1.641.89-1.894.76-1.894.76l.126-3.15-3.156-4.17-.379-5.81-7.702-2.4s-3.157-3.53-4.167-3.03c-2.399-2.52-10.858-13.13-25.757-10.6-10.859 5.3-27.526 14.63-23.233 37.24-.126.39 4.167 9.99 12.627 15.92-2.273 8.21-6.771 15.6-11.539 16.81-4.767 1.21-10.909 3.96-13.495 8.16-2.586 4.2-16.737 30.12-16.737 30.12s-12.034 14.01-11.442 20.12c-6.116 6.91-34.92 46.76-34.723 56.43-7.891 8.28-16.177 17.95-16.177 17.95s-21.899 13.22-35.117 9.67c-.789 1.58-.987 4.54 5.129 4.34 6.116-.2 21.307-1.58 21.307-1.58s3.354.59-.197 3.55-9.47 5.72-9.47 5.72-1.775 3.33 5.327 1.58 16.967-5.3 16.967-5.3 1.972 1.38-.395 4.34-2.762 6.71 3.748 4.14c6.116-6.9 8.089-9.86 8.089-9.86s5.13-2.76 6.708 1.18c4.143 3.55 11.048 4.34 11.048 4.34s10.061-2.96-.789-6.31c-3.749-4.34-2.96-2.96-3.354-10.06-.395-7.11-.987-7.7-.987-7.7s7.695-21.5 14.994-26.04c7.3-4.54 28.804-18.94 35.906-41.63 5.721-1.18 9.667-3.75 10.654-8.87l5.326.39s7.892 13.81 10.457 15.78c-.198 4.74.591 7.1 4.734 11.25 1.381 5.92 1.776 14.6 4.933 17.95-3.157 3.36-7.3 8.68-7.3 8.68s-11.443-3.55-11.837 14.4c-.395 17.96-.197 17.96-.197 17.96l-8.681 8.09s-9.667.51-12.232 8.4c-7.891 5.53-40.049 33.74-43.205 44.79-9.076 1.97-17.559 4.34-20.124 11.05-12.231 5.52-51.036 25.45-59.717 34.72-11.048 9.27-33.736 32.35-33.736 32.35l1.973 3.16-5.129 3.75-5.327-2.37s-4.34 2.57-5.524 6.91c-3.157.98-3.946.59-3.946.59l-3.551-10.26s-4.735-5.53-3.946 3.94c1.184 3.75 2.565 9.28 2.565 9.28l.197 3.35-3.354-.2-4.537 3.95-.789 3.55-8.089 3.35-16.967 5.33-12.231.99-10.654 8.68s-1.184 8.68 5.721 13.61c4.933 5.53 14.994 14.8 26.042 7.89 9.273-2.96 13.613-4.54 18.348-2.36 5.721 0 10.851 1.97 15.388-8.49l2.565-.98s2.367-6.12 4.537-6.51c2.171-.4 1.973 4.73 13.81-13.42 2.96-1.18 4.341-1.38 3.946-3.75 2.959-1.78 6.708-4.14 6.708-4.14s4.34-.2 6.116-1.97l5.326-4.15 6.116 1.98 36.991-28.71s55.487-28.05 58.878-37.61c13.563-4.93 40.857-16.64 48.872-21.57 5.24-4.32 39.765-22.51 39.765-22.51s9.248-3.08 12.33 1.55c7.09 3.69 22.195 9.24 28.36 8.32 8.015 4.01 28.052 11.71 28.052 11.71s35.817 18.8 56.477 17.57c14.79 7.4 60.11 40.69 60.11 40.69s6.16 4.32 9.86 4.01c2.47 2.77 25.28 18.19 25.28 18.19s-.62 2.77 8.01 1.54c8.94 6.47 10.48 8.32 10.48 8.32s3.39 9.87 9.25 8.32c2.47 4.63 6.47 14.18 12.64 15.42 1.54 5.85 3.39 14.79 8.32 16.64 4.63-.3 4.32 3.39 14.18-7.7 10.79-8.02 30.21-20.97 30.21-20.97l28.36-26.5s-3.08-7.71-14.49-5.86c-11.71 7.09-12.64 7.71-12.64 7.71s-28.35 5.23-35.75 2.15c6.16-9.55 9.86-14.49 9.86-14.49l8.32-3.08s0-5.85-4.93-2.77c-4.93 3.08-11.1 8.63-11.1 8.63l-3.39-.31s-7.4 9.87-14.48 0l-3.09.31-6.16-3.39 2.16-6.17-9.25-6.16s-69.67-60.11-97.1-72.13l-6.79-1.24s-9.86-17.32-65.039-44.7c-.308-.24 6.169-7.33-2.466-15.96l-10.789-6.48-7.09-12.94s10.789-36.69 5.549-63.81c0 0-2.466-18.5-10.173-26.21l-5.857-28.66s14.489-35.45 10.173-47.17c1.541-2.77 3.699-12.33 4.007-15.72.309-3.39 10.481-23.43 9.248-32.67 5.24-7.71 5.24-7.4 6.474-19.42.924-9.25-.309-3.4 0-11.41.308-8.01 1.233-25.59 3.083-32.68s-2.468-12.79 1.08-15.33" style="fill:#fff;stroke:#000;stroke-width:5.24px" transform="matrix(.02884 0 0 .02884 1369.6 2874.44)" id="mj"/></g><g id="zapatillas"><path d="M546.885 2469.82c-.63.28 13.121 7.04 22.192 6.89 8.287-.13 38.95-1.57 51.971-11.44 26.239-12.43 31.566-15.19 31.171-17.76-.789-7.69-.986-18.93-.986-18.93s-2.367 2.76-3.551-20.72c-5.524-11.64-6.905-11.84-6.905-11.84s-1.776 9.08-1.381 13.02c-3.157 3.95-2.17 6.32-6.708 2.17-4.537-4.14-2.17-5.12-10.851-6.7l.79-7.89s-22.885-13.42-30.185-6.91l-.789 8.29-15.98 23.47s-15.191 19.14-20.518 20.72c-5.327 2.76-10.91 10.7-11.305 15.83-.395 5.13 3.035 11.8 3.035 11.8Z" style="fill:#5d5b5c;stroke:#000;stroke-width:.29px" transform="matrix(-.53984 0 0 .48841 1781.27 1820.6)"/><path d="M567.979 2432.13s15.388 4.14 17.361 6.9c1.973 2.76 4.537-.98 4.537-.98l-20.517-9.28-1.381 3.36Z" style="fill:#121011;stroke:#000;stroke-width:.29px" transform="matrix(-.53984 0 0 .48841 1777.862 1817.42)"/><path d="M567.979 2432.13s15.388 4.14 17.361 6.9c1.973 2.76 4.537-.98 4.537-.98l-20.517-9.28-1.381 3.36Z" style="fill:#121011;stroke:#000;stroke-width:.29px" transform="matrix(-.53984 0 0 .48841 1774.24 1814.53)"/><path d="M567.979 2432.13s15.388 4.14 17.361 6.9c1.973 2.76 4.537-.98 4.537-.98l-20.517-9.28-1.381 3.36Z" style="fill:#121011;stroke:#000;stroke-width:.26px" transform="matrix(-.60793 0 0 .55678 1812.594 1645.576)"/><path d="M567.979 2432.13s15.388 4.14 17.361 6.9c1.973 2.76 4.537-.98 4.537-.98l-20.517-9.28-1.381 3.36Z" style="fill:#121011;stroke:#000;stroke-width:.26px" transform="matrix(-.60793 0 0 .55678 1809.505 1643.07)"/><path d="M567.979 2432.13s15.388 4.14 17.361 6.9c1.973 2.76 4.537-.98 4.537-.98l-20.517-9.28-1.381 3.36ZM596.19 2408.06s-9.667-5.13-11.048.2c-1.381 5.32 11.048 2.76 11.048 2.76v-2.96Z" style="fill:#121011;stroke:#000;stroke-width:.29px" transform="matrix(-.53984 0 0 .48841 1781.27 1820.6)"/><path d="M596.656 2408.01s-10.133-5.08-11.514.25c-1.381 5.32 11.514 2.6 11.514 2.6v-2.85Z" style="fill:#121011;stroke:#000;stroke-width:.29px" transform="matrix(.53984 0 0 .48841 1133.769 1820.65)"/><path d="M596.19 2408.06s-9.667-5.13-11.048.2c-1.381 5.32 11.048 2.76 11.048 2.76v-2.96Z" style="fill:#5d5b5c;stroke:#000;stroke-width:.68px" transform="matrix(.22478 0 0 .22255 1319.488 2461.04)"/><path d="M596.19 2408.06s-9.667-5.13-11.048.2c-1.381 5.32 11.048 2.76 11.048 2.76v-2.96Z" style="fill:none;stroke:#000;stroke-width:.68px" transform="matrix(-.22478 0 0 .22255 1595.44 2460.942)"/><path d="M598.952 2407.07c-3.551 1.19-3.945 1.78-2.17 4.54 3.157 1.97 3.749 1.78 5.722-.4 1.972-2.17 0-5.32-3.552-4.14Z" style="fill:#121011;stroke:#000;stroke-width:.29px" transform="matrix(-.53984 0 0 .48841 1781.27 1820.6)"/><path d="M561.074 2454.81s-3.552 2.37-1.973 4.35c1.578 1.97 9.469.39 12.626-1.39-9.075 0-10.851-.19-10.851-.19l.198-2.77Z" style="fill:#edebec;stroke:#edebec;stroke-width:.29px" transform="matrix(-.53984 0 0 .48841 1781.27 1820.6)"/><path d="M621.246 2464.28s5.721-29.19 27.422-33.14c1.381 4.34 1.381 7.3.395 10.26 2.959 5.33 3.156 6.11 3.156 6.11" style="fill:#edebec;stroke:#000;stroke-width:.29px" transform="matrix(-.53984 0 0 .48841 1781.27 1820.6)"/><path d="m631.11 2449.88.197 3.75 13.81-6.51-.197-4.14-13.81 6.9Z" style="fill:#413f40;stroke:#000;stroke-width:.29px" transform="matrix(-.53984 0 0 .48841 1781.27 1820.6)"/><path d="M480.38 2566.49s70.86-6.48 77.711-17.03c6.852-10.55-4.708 6.4-3.166 10.25 1.541 3.86-33.273 15.03-55.369 12.75-20.328-4.29-16.762-6.77-19.176-5.97Z" style="fill:none;stroke:#000;stroke-width:.29px" transform="matrix(-.53984 0 0 .48841 1745.284 1773.74)"/><path d="M621.048 2423.25s-10.653 11.05-.197 18.54c14.994-13.41 23.477-21.5 25.844-29.98-5.721 6.7-14.993 18.54-23.082 19.72-2.17-8.08-2.565-8.28-2.565-8.28ZM592.639 2402.73l17.756-.59 2.17-7.89-16.375-4.93s-4.932 10.26-3.551 13.41Z" style="fill:#edebec;stroke:#000;stroke-width:.29px" transform="matrix(-.53984 0 0 .48841 1781.27 1820.6)"/><path d="M561.074 2454.81s-3.552 2.37-1.973 4.35c1.578 1.97 9.469.39 12.626-1.39-9.075 0-10.851-.19-10.851-.19l.198-2.77Z" style="fill:#121011;stroke:#edebec;stroke-width:.28px" transform="scale(-.53984 .48841) rotate(-19.56 9570.736 13751.487)"/></g><path d="m1025.21 2912.33 66.47 37.09 28.9 39.98.96 7.22c-35.46-1.99-69.7-15.51-102.59-41.9l6.26-42.39Z" style="fill-opacity:.23;stroke:#474647;stroke-width:.42px" transform="matrix(.36296 0 0 .36296 1059.9 1942.21)"/><g id="zapatillas1"><path d="M539.372 2467.24s20.123 9.28 28.409 9.47c8.286.2 40.246-1.57 53.267-11.44 26.239-12.43 31.566-15.19 31.171-17.76-.789-7.69-.986-18.93-.986-18.93s-2.367 2.76-3.551-20.72c-5.524-11.64-6.905-11.84-6.905-11.84s-1.776 9.08-1.381 13.02c-3.157 3.95-2.17 6.32-6.708 2.17-4.537-4.14-2.17-5.12-10.851-6.7l.79-7.89s-22.885-13.42-30.185-6.91l-.789 8.29-15.98 23.47s-15.191 19.14-20.518 20.72c-5.327 2.76-14.796 9.27-15.191 14.4-.395 5.13-.592 10.65-.592 10.65Z" style="fill:#5d5b5c;stroke:#000;stroke-width:.29px" transform="matrix(-.53984 0 0 .48841 1737.57 1820.6)"/><path d="M567.979 2432.13s15.388 4.14 17.361 6.9c1.973 2.76 4.537-.98 4.537-.98l-20.517-9.28-1.381 3.36Z" style="fill:#121011;stroke:#000;stroke-width:.29px" transform="matrix(-.53984 0 0 .48841 1734.162 1817.42)"/><path d="M567.979 2432.13s15.388 4.14 17.361 6.9c1.973 2.76 4.537-.98 4.537-.98l-20.517-9.28-1.381 3.36Z" style="fill:#121011;stroke:#000;stroke-width:.29px" transform="matrix(-.53984 0 0 .48841 1730.54 1814.53)"/><path d="M567.979 2432.13s15.388 4.14 17.361 6.9c1.973 2.76 4.537-.98 4.537-.98l-20.517-9.28-1.381 3.36Z" style="fill:#121011;stroke:#000;stroke-width:.26px" transform="matrix(-.60793 0 0 .55678 1768.894 1645.576)"/><path d="M567.979 2432.13s15.388 4.14 17.361 6.9c1.973 2.76 4.537-.98 4.537-.98l-20.517-9.28-1.381 3.36Z" style="fill:#121011;stroke:#000;stroke-width:.26px" transform="matrix(-.60793 0 0 .55678 1765.805 1643.07)"/><path d="M567.979 2432.13s15.388 4.14 17.361 6.9c1.973 2.76 4.537-.98 4.537-.98l-20.517-9.28-1.381 3.36ZM596.19 2408.06s-9.667-5.13-11.048.2c-1.381 5.32 11.048 2.76 11.048 2.76v-2.96Z" style="fill:#121011;stroke:#000;stroke-width:.29px" transform="matrix(-.53984 0 0 .48841 1737.57 1820.6)"/><path d="M596.656 2408.01s-10.133-5.08-11.514.25c-1.381 5.32 11.514 2.6 11.514 2.6v-2.85Z" style="fill:#121011;stroke:#000;stroke-width:.29px" transform="matrix(.53984 0 0 .48841 1090.069 1820.65)"/><path d="M596.19 2408.06s-9.667-5.13-11.048.2c-1.381 5.32 11.048 2.76 11.048 2.76v-2.96Z" style="fill:#5d5b5c;stroke:#000;stroke-width:.68px" transform="matrix(.22478 0 0 .22255 1275.788 2461.04)"/><path d="M596.19 2408.06s-9.667-5.13-11.048.2c-1.381 5.32 11.048 2.76 11.048 2.76v-2.96Z" style="fill:none;stroke:#000;stroke-width:.68px" transform="matrix(-.22478 0 0 .22255 1551.74 2460.942)"/><path d="M598.952 2407.07c-3.551 1.19-3.945 1.78-2.17 4.54 3.157 1.97 3.749 1.78 5.722-.4 1.972-2.17 0-5.32-3.552-4.14Z" style="fill:#121011;stroke:#000;stroke-width:.29px" transform="matrix(-.53984 0 0 .48841 1737.57 1820.6)"/><path d="M561.074 2454.81s-3.552 2.37-1.973 4.35c1.578 1.97 9.469.39 12.626-1.39-9.075 0-10.851-.19-10.851-.19l.198-2.77Z" style="fill:#edebec;stroke:#edebec;stroke-width:.29px" transform="matrix(-.53984 0 0 .48841 1737.57 1820.6)"/><path d="M621.246 2464.28s5.721-29.19 27.422-33.14c1.381 4.34 1.381 7.3.395 10.26 2.959 5.33 3.156 6.11 3.156 6.11" style="fill:#edebec;stroke:#000;stroke-width:.29px" transform="matrix(-.53984 0 0 .48841 1737.57 1820.6)"/><path d="m631.11 2449.88.197 3.75 13.81-6.51-.197-4.14-13.81 6.9Z" style="fill:#413f40;stroke:#000;stroke-width:.29px" transform="matrix(-.53984 0 0 .48841 1737.57 1820.6)"/><path d="M480.38 2566.49s70.86-6.48 77.711-17.03c6.852-10.55-4.708 6.4-3.166 10.25 1.541 3.86-33.273 15.03-55.369 12.75-20.328-4.29-16.762-6.77-19.176-5.97Z" style="fill:none;stroke:#000;stroke-width:.29px" transform="matrix(-.53984 0 0 .48841 1701.584 1773.74)"/><path d="M621.048 2423.25s-10.653 11.05-.197 18.54c14.994-13.41 23.477-21.5 25.844-29.98-5.721 6.7-14.993 18.54-23.082 19.72-2.17-8.08-2.565-8.28-2.565-8.28ZM592.639 2402.73l17.756-.59 2.17-7.89-16.375-4.93s-4.932 10.26-3.551 13.41Z" style="fill:#edebec;stroke:#000;stroke-width:.29px" transform="matrix(-.53984 0 0 .48841 1737.57 1820.6)"/><path d="M561.074 2454.81s-3.552 2.37-1.973 4.35c1.578 1.97 9.469.39 12.626-1.39-9.075 0-10.851-.19-10.851-.19l.198-2.77Z" style="fill:#121011;stroke:#edebec;stroke-width:.28px" transform="scale(-.53984 .48841) rotate(-19.56 9611.211 13516.669)"/></g><g id="camiseta"><path d="m1384.25 2906.61-.63 13.17h-16.46l-1.27-31.15s4.05-11.49 29.51-11.52c9.24 4.77 58.88 3.61 65.09-.54 6.58-2.76 30.64 5.6 27.1 14.59-.51 10.26-1.01 25.96-1.01 25.96h-16.47l-.38-10.89 1.02 17.47s-.08 7.78.15 16.37c-9.63.02-7.5.22-7.5.22l-79.78 1.27v-21.78" style="fill:#1f273c;stroke:#000;stroke-width:.15px"/><g id="add"><path d="m887.524 2792.9.462 38.2 4.467 3.55 7.548.3-2.619-3.85-1.386-38.2h-8.472Z" style="fill:#fff;stroke:#000;stroke-width:.52px" transform="matrix(.62005 0 0 .533 889.738 1421.19)"/><path d="m887.524 2792.9.462 38.2 4.467 3.55 7.548.3-2.619-3.85-1.386-38.2h-8.472ZM843.626 2834.95c3.08-1.84 6.161-4.15 6.161-4.15s1.54-1.54-1.232-2.93l-.308-5.85s6.931-9.71 4.775-12.02c2.464.46 8.163 9.86 8.163 9.86l4.313-2.77-6.007-11.56-.154-6.62 4.775-6.78 21.256 42.52-11.552.3-6.624-14.32s-13.246 17.4-23.566 14.32Z" style="fill:#fff;stroke:#000;stroke-width:.52px" transform="matrix(.62005 0 0 .533 879.805 1421.19)"/></g><path d="M1001.35 2416.68c-1.544 1.54 32.98 1.23 35.45-31.14-.31 0 2.77-30.21-29.29-36.37-.61.31-34.214-5.86-38.53 32.98-.308.31-.308 20.96 11.406 34.84 1.85 8.01 2.774 10.78 2.774 10.78l-6.781 31.76s-3.699.92-4.316 6.78l-5.24 18.49 1.541 2.47-7.398 14.18s-1.233 4.93.308 9.55c-2.158 5.55-10.137 31.54-10.137 31.54s-11.363 9.6-11.237 14.01c-1.641.89-1.894.76-1.894.76l.126-3.15-3.156-4.17-.379-5.81-7.702-2.4s-3.157-3.53-4.167-3.03c-2.399-2.52-10.858-13.13-25.757-10.6-10.859 5.3-27.526 14.63-23.233 37.24-.126.39 4.167 9.99 12.627 15.92-2.273 8.21-6.771 15.6-11.539 16.81-4.767 1.21-10.909 3.96-13.495 8.16-2.586 4.2-16.737 30.12-16.737 30.12s-12.034 14.01-11.442 20.12c-6.116 6.91-34.92 46.76-34.723 56.43-7.891 8.28-16.177 17.95-16.177 17.95s-21.899 13.22-35.117 9.67c-.789 1.58-.987 4.54 5.129 4.34 6.116-.2 21.307-1.58 21.307-1.58s3.354.59-.197 3.55-9.47 5.72-9.47 5.72-1.775 3.33 5.327 1.58 16.967-5.3 16.967-5.3 1.972 1.38-.395 4.34-2.762 6.71 3.748 4.14c6.116-6.9 8.089-9.86 8.089-9.86s5.13-2.76 6.708 1.18c4.143 3.55 11.048 4.34 11.048 4.34s10.061-2.96-.789-6.31c-3.749-4.34-2.96-2.96-3.354-10.06-.395-7.11-.987-7.7-.987-7.7s7.695-21.5 14.994-26.04c7.3-4.54 28.804-18.94 35.906-41.63 5.721-1.18 9.667-3.75 10.654-8.87l5.326.39s7.892 13.81 10.457 15.78c-.198 4.74.591 7.1 4.734 11.25 1.381 5.92 1.776 14.6 4.933 17.95-3.157 3.36-7.3 8.68-7.3 8.68s-11.443-3.55-11.837 14.4c-.395 17.96-.197 17.96-.197 17.96l-8.681 8.09s-9.667.51-12.232 8.4c-7.891 5.53-40.049 33.74-43.205 44.79-9.076 1.97-17.559 4.34-20.124 11.05-12.231 5.52-51.036 25.45-59.717 34.72-11.048 9.27-33.736 32.35-33.736 32.35l1.973 3.16-5.129 3.75-5.327-2.37s-4.34 2.57-5.524 6.91c-3.157.98-3.946.59-3.946.59l-3.551-10.26s-4.735-5.53-3.946 3.94c1.184 3.75 2.565 9.28 2.565 9.28l.197 3.35-3.354-.2-4.537 3.95-.789 3.55-8.089 3.35-16.967 5.33-12.231.99-10.654 8.68s-1.184 8.68 5.721 13.61c4.933 5.53 14.994 14.8 26.042 7.89 9.273-2.96 13.613-4.54 18.348-2.36 5.721 0 10.851 1.97 15.388-8.49l2.565-.98s2.367-6.12 4.537-6.51c2.171-.4 1.973 4.73 13.81-13.42 2.96-1.18 4.341-1.38 3.946-3.75 2.959-1.78 6.708-4.14 6.708-4.14s4.34-.2 6.116-1.97l5.326-4.15 6.116 1.98 36.991-28.71s55.487-28.05 58.878-37.61c13.563-4.93 40.857-16.64 48.872-21.57 5.24-4.32 39.765-22.51 39.765-22.51s9.248-3.08 12.33 1.55c7.09 3.69 22.195 9.24 28.36 8.32 8.015 4.01 28.052 11.71 28.052 11.71s35.817 18.8 56.477 17.57c14.79 7.4 60.11 40.69 60.11 40.69s6.16 4.32 9.86 4.01c2.47 2.77 25.28 18.19 25.28 18.19s-.62 2.77 8.01 1.54c8.94 6.47 10.48 8.32 10.48 8.32s3.39 9.87 9.25 8.32c2.47 4.63 6.47 14.18 12.64 15.42 1.54 5.85 3.39 14.79 8.32 16.64 4.63-.3 4.32 3.39 14.18-7.7 10.79-8.02 30.21-20.97 30.21-20.97l28.36-26.5s-3.08-7.71-14.49-5.86c-11.71 7.09-12.64 7.71-12.64 7.71s-28.35 5.23-35.75 2.15c6.16-9.55 9.86-14.49 9.86-14.49l8.32-3.08s0-5.85-4.93-2.77c-4.93 3.08-11.1 8.63-11.1 8.63l-3.39-.31s-7.4 9.87-14.48 0l-3.09.31-6.16-3.39 2.16-6.17-9.25-6.16s-69.67-60.11-97.1-72.13l-6.79-1.24s-9.86-17.32-65.039-44.7c-.308-.24 6.169-7.33-2.466-15.96l-10.789-6.48-7.09-12.94s10.789-36.69 5.549-63.81c0 0-2.466-18.5-10.173-26.21l-5.857-28.66s14.489-35.45 10.173-47.17c1.541-2.77 3.699-12.33 4.007-15.72.309-3.39 10.481-23.43 9.248-32.67 5.24-7.71 5.24-7.4 6.474-19.42.924-9.25-.309-3.4 0-11.41.308-8.01 1.233-25.59 3.083-32.68s-2.468-12.79 1.08-15.33" style="fill:#fff;stroke:#000;stroke-width:3.93px" transform="matrix(.03852 0 0 .03852 1364.77 2793.71)" id="mj1"/><g id="rayas1"><path d="M1419.61 2957.14v3.5l-34.76 4.99v-3.17l34.76-5.32Z" style="fill:#fff;stroke:#000;stroke-width:.21px" transform="matrix(.50415 0 0 .888 771.655 267.909)"/><path d="m1419.61 2957.14-.26 3.5-34.75 4.99v-3.16l35.01-5.33Z" style="fill:#f12d39;stroke:#000;stroke-width:.21px" transform="matrix(.50415 0 0 .888 771.786 271.041)"/><path d="m1419.22 2957.14-.38 3.5-34.24 4.99-.26-3.17 34.88-5.32Z" style="fill:#fff;stroke:#000;stroke-width:.21px" transform="matrix(.50415 0 0 .888 771.838 274.173)"/></g><g id="psg"><circle cx="1043.41" cy="2895.62" r="221.951" style="fill:#015196;stroke:#fff;stroke-width:4.05px" transform="matrix(.0373 0 0 .0373 1412.378 2787.545)"/><circle cx="1067.58" cy="2947.74" r="248.249" style="fill:#fff;stroke:#fff;stroke-width:4.78px" transform="matrix(.03163 0 0 .03163 1417.533 2802.42)"/><circle cx="1067.58" cy="2947.74" r="248.249" style="fill:#015196;stroke:#015196;stroke-width:5.02px" transform="matrix(.03015 0 0 .03015 1419.095 2806.732)"/><circle cx="1034.91" cy="2923.26" r="161.234" style="fill:#fff;stroke:#fff;stroke-width:5.3px" transform="matrix(.02855 0 0 .02855 1421.776 2812.126)"/><circle cx="1034.91" cy="2923.26" r="161.234" style="fill:#015196;stroke:#015196;stroke-width:5.71px" transform="matrix(.0265 0 0 .0265 1423.875 2818.156)"/><path d="M1439.17 2578.38c-7.15-1.16-7.71.13-7.71.13s.41 28.44-22.93 45.86c9.96 13.66 10.13 9.67 11.44 10.58 1.45-11.71.84-13.94 15.17-17.76 16.97 5.53 15.45 13.82 14.66 17.63 7.49-1.97 10.97-8.41 10.97-10.9-3.02-2.9-26.28-28.93-21.6-45.54Z" style="fill:#ef2f3a;stroke:#fff;stroke-width:1.08px" transform="matrix(.14022 0 0 .14022 1250.084 2529.861)"/><path d="M1437.99 2578.13s-3.05 22.73 22.77 47.22c1.38-2.47.22-.44 2.03-3.7-3.31-2.58-23.11-18.19-23.12-43.32-1.35-.23-1.68-.2-1.68-.2Z" style="fill:#fff;stroke:#fff;stroke-width:1.08px" transform="matrix(.14022 0 0 .14022 1250.084 2529.861)"/><path d="M1424.17 2607.78s-.65 1.06-.78 1.3c1.11-.03 23.54 0 23.54 0l-.73-1.31-22.03.01ZM1419.05 2634.85s-1.69-17.86 16.35-18.41c18.14 2.25 15.72 15.99 16.09 18.03-4.95 2.7-5.17 2.7-5.17 2.7s8.19-15.25-11.2-19.02c-19.29 4.31-11.26 17.24-10.46 19.29-5.65-2.43-5.61-2.59-5.61-2.59Z" style="fill:#fff;stroke:#fff;stroke-width:1.08px" transform="matrix(.14022 0 0 .14022 1250.084 2529.861)"/><path d="M1437.94 2578.04s-2.96 22.81 22.86 47.3c1.38-2.47.37-.51 2.18-3.76-3.31-2.59-23.27-18.16-23.29-43.29-1.34-.23-1.75-.25-1.75-.25Z" style="fill:#fff;stroke:#fff;stroke-width:1.08px" transform="matrix(-.14022 0 0 .14022 1652.552 2529.875)"/><path d="M1009.61 2971.92s-8.97-20.08-8.97-21.59c0-1.52 6.69-21.47 9.85-23.36 3.28 2.9 9.85 17.04 10.35 21.46-.75 4.8-7.82 21.47-9.84 23.24-2.02 1.76-1.39.25-1.39.25ZM1014.78 2971.54s8.59-19.95 19.07-16.54c4.92 1.51 10.86 2.78 8.96 11.99-4.04 5.69-3.66 9.6-11.87 6.32-2.52-1.64-3.15-1.77-3.4-4.42.25.12 4.92-2.15 4.92-2.15s.63-4.54-3.91-3.91c-3.92 1.64-10.86 9.09-10.86 9.59 0 .38-3.16.38-2.91-.88Z" style="fill:#b49756;stroke:#b49756;stroke-width:4.87px" transform="matrix(.03108 0 0 .03108 1419.91 2806.56)"/><path d="m1010.87 2975.64 4.8 6.18-4.8 6.69-5.42-6.31 5.42-6.56Z" style="fill:#b49755;stroke:#b49756;stroke-width:4.87px" transform="matrix(.03108 0 0 .03108 1419.91 2806.56)"/><path d="M1006.2 2971.09s-6.815-17.68-16.917-16.29c-4.924.89-9.848 1.64-11.363 7.96.631 6.31 5.303 14.26 12.626 10.6 1.894-1.13 4.672-3.28 0-4.79-2.146-1.27-1.389-6.45 1.894-5.81 3.662 1.64 11.24 9.85 11.24 9.85s2.78 0 2.52-1.52Z" style="fill:#b49756;stroke:#b49756;stroke-width:4.87px" transform="matrix(.03108 0 0 .03108 1419.91 2806.56)"/><path d="m843.103 2713.52 45.13 41.19 9.617-8.88-13.563-13.32 20.961-24.9s9.618-35.76-30.086-27.38c-22.441 22.44-32.059 33.29-32.059 33.29Z" style="fill:#fff;stroke:#fff;stroke-width:4.87px" transform="matrix(.03108 0 0 .03108 1419.91 2806.56)"/><path d="m861.106 2711.06 14.056 13.81 18.496-20.96s4.932-14.55-12.33-13.57c-13.071 13.81-20.222 20.72-20.222 20.72Z" style="fill:#015196;stroke:#015196;stroke-width:4.87px" transform="matrix(.03108 0 0 .03108 1419.91 2806.56)"/><path d="m924.237 2724.87 4.686-71.03 12.823-4.19 48.582 52.53-15.536 3.21-10.605-12.34-26.386 9.13.246 15.54-13.81 7.15Z" style="fill:#fff;stroke:#fff;stroke-width:4.87px" transform="matrix(.03108 0 0 .03108 1419.91 2806.56)"/><path d="m939.773 2664.7 16.276 18.24-17.262 6.66.986-24.9Z" style="fill:#015196;stroke:#015196;stroke-width:4.87px" transform="matrix(.03108 0 0 .03108 1419.91 2806.56)"/><path d="m997.43 2639.79-.493 61.16 13.813.49-.5-18.25h15.29l12.83 20.47 17.51 3.7-16.03-25.16s38.47-22.83-1.48-42.41c-40.94.39-40.94 0-40.94 0ZM1066.48 2710.71l23.67-57.95 13.32 6.16-24.17 56.72-12.82-4.93ZM1172.03 2712.68s-21.21-38.47-47.11-30.57c.25.74-22.44 10.11 6.66 37.23l9.13 11.35s-1.48 21.45-17.27.49c-15.78-20.96-16.76-21.21-16.76-21.21l-9.37 6.91s29.09 50.55 48.82 33.54c6.91-5.68 15.29-15.29-.49-34.53-11.59-12.33-12.82-13.81-12.82-13.81s-6.66-14.8 11.59-4.44c14.3 13.81 18.74 21.95 18.74 21.95l8.88-6.91ZM875.942 2994.46l-7.596-10.51s-7.596-3.31-4.525 3.56c3.071 6.87 6.546 11.15 6.546 11.15s3.07 10.18-7.596 8.81c-10.667-1.38-13.334-16.49-13.334-16.49l2.586-2.91 9.212 13.66s8.647 2.91 4.445-5.01c-5.414-7.35-6.788-9.78-6.788-9.78s-3.071-9.21 7.919-7.84c8.485 6.87 12.202 12.61 12.202 12.61l-3.071 2.75ZM868.185 3013.77l22.464-10.99 4.041 2.5-7.677 25.38-3.555-2.26 2.747-8.81-7.273-6.22-7.272 3.39-3.475-2.99Z" style="fill:#fff;stroke:#fff;stroke-width:4.87px" transform="matrix(.03108 0 0 .03108 1419.91 2806.56)"/><path d="m883.619 3011.67 6.061-3.72-1.94 6.63-4.121-2.91Z" style="fill:#015196;stroke:#015196;stroke-width:4.87px" transform="matrix(.03108 0 0 .03108 1419.91 2806.56)"/><path d="m893.708 3035.02 13.253-20.36 3.474 3.23-12.929 19.48-3.798-2.35ZM905.991 3042.7l11.071-21.01 4.121 2.02 3.555 20.36 7.677-14.54 3.798 2.66-11.394 20.77-3.313-1.94-3.313-20.77-8.566 14.95-3.636-2.5ZM1019.61 3053.91s-14.55-8.4-16.97 5.58c-.25-.17.08 9.05 8.89 8.16.08-.08 6.62-.49 6.7-2.99l.09-2.51-7.84-.4-.16-3.88 11.87.24v8.49s-4.68 5.98-10.74 5.17c-.57-.16-11.32-1.21-12.772-8.81-.081-.08.485-7.43.485-7.43s3.317-9.94 11.877-8.89c.24-.17 5.17.32 5.17.32l5.58 3.8-2.18 3.15ZM972.649 3053.77l8.565 1.45-.08 4.21-9.455-1.86.97-3.8ZM941.143 3059.59l6.626-19.23-7.03-3.16 1.131-3.55 18.505 7.03-.566 3.88-7.272-2.59-6.95 18.99-4.444-1.37ZM1028.58 3046.72l2.91 23.03 19.71-2.34-.24-4.13-15.76 1.7-.64-6.06 7.19-.4-.32-3.8-7.92-.41-.33-4.36 14.87-2.18.08-4.04-19.55 2.99ZM1061.84 3064.33l-6.63-21.65 13.98-5.01s10.51-1.13 8.24 9.61l-1.86 2.99 5.82 6.71-2.91 2.91-8.08-8-7.11 2.75 2.26 7.75-3.71 1.94Z" style="fill:#fff;stroke:#fff;stroke-width:4.87px" transform="matrix(.03108 0 0 .03108 1419.91 2806.56)"/><path d="m1060.14 3045.1 1.7 5.17 11.96-4.52s.48-5.34-2.51-4.45c-2.99.89-11.15 3.8-11.15 3.8Z" style="fill:#015196;stroke:#015196;stroke-width:4.87px" transform="matrix(.03108 0 0 .03108 1419.91 2806.56)"/><path d="m1082.61 3033.3 9.77 20.13 4.12-2.11-5.81-11.71 11.15 7.03 1.45-.08.24-14.39 6.95 12.37 4.04-1.86-11.55-20.61-3.48 2.18-.4 14.95-12.53-8.32-3.95 2.42ZM1120.33 3039.45l-5.17-25.22 3.64-2.74 21.33 12.52-2.91 3.64-6.63-4.53-7.92 6.31 1.86 7.43-4.2 2.59Z" style="fill:#fff;stroke:#fff;stroke-width:4.87px" transform="matrix(.03108 0 0 .03108 1419.91 2806.56)"/><path d="m1119.6 3017.3 2.02 6.95 4.29-3.23-6.31-3.72Z" style="fill:#015196;stroke:#015196;stroke-width:4.87px" transform="matrix(.03108 0 0 .03108 1419.91 2806.56)"/><path d="m1146.58 3020.21 2.74-2.66-16.24-17.62-2.91 2.75 16.41 17.53ZM1139.95 2994.27l16.81 15.76 3.23-3.31-11.96-10.91 21.74.48 1.61-2.18-17.53-16.08-2.43 2.99 11.8 11.23-21.25-.64-2.02 2.66Z" style="fill:#fff;stroke:#fff;stroke-width:4.87px" transform="matrix(.03108 0 0 .03108 1419.91 2806.56)"/><path d="m1010.42 2651.66-.47 18.94h25.09s17.84-11.21.32-19.25c-15 .31-24.94.31-24.94.31Z" style="fill:#015196;stroke:#015196;stroke-width:4.87px" transform="matrix(.03108 0 0 .03108 1419.887 2806.532)"/></g></g><g id="mano"><path d="M1379.33 2936.22s-1.08 7.97-.26 8.8c.83.82 6.57-1.97 11.28-.06.26-5.27.67-17.74.67-17.74s.72-2.22-7.29-2.74m0 0h0Z" style="fill:#dec9a8;stroke:#000;stroke-width:.15px"/><g id="vape"><path d="m361.529 2170.71-11.616 9.72-.379 6.82h44.841l-.271-7.45-10.984-8.96-21.591-.13Z" style="fill:#d0d3cd;stroke:#000;stroke-width:.86px" transform="matrix(-.17546 0 0 .17546 1452.1 2546.01)"/><path d="m348.903 2210.86 44.696-.37.253-20.71-44.697.12-.252 20.96Z" style="fill:#809078;stroke:#000;stroke-width:.85px" transform="matrix(-.1794 0 0 .17546 1453.476 2545.988)"/><path d="m349.605 2187.07-.444 2.71 45.696-.38-.387-2.26-44.865-.07Z" style="fill:#7d8180;stroke:#000;stroke-width:.86px" transform="matrix(-.17546 0 0 .17546 1452.1 2546.01)"/><path d="m348.902 2210.33-.404 21.41s35.657 5.25 46.869.81c-.606-22.02-.707-22.42-.707-22.42l-45.758.2Z" style="fill:#838880;stroke:#000;stroke-width:.86px" transform="matrix(-.17546 0 0 .17546 1452.1 2546.01)"/><path d="M348.498 2231.74s-37.402.28-5.047 5.8c39.615-.47 52.241-2.36 52.241-2.36l3.156-2.69-3.63-.63s-2.847 5.6-46.72-.12Z" style="fill:#d1d1cf;stroke:#000;stroke-width:.86px" transform="matrix(-.17546 0 0 .17546 1452.1 2546.01)"/><path d="m346.922 2237.5.317 110.68s4.577 5.84 8.207 6.16c3.63.31 39.654 1.38 43.244-5.06.277-10.06.434-117.22.434-117.22l-3.156 2.68s-45.219 4.41-49.046 2.76Z" style="fill:#7d4538;stroke:#000;stroke-width:.86px" transform="matrix(-.17546 0 0 .17546 1452.1 2546.01)"/><path d="m330.499 2234.03 1.313 112.43 6.061 6.26 16.667 3.33.202-1.81s-6.465-2.43-7.374-6.06c0-4.25-.404-110.61-.404-110.61l-3.636-.3s-11.112-1.52-12.829-3.24Z" style="fill:#a2a499;stroke:#000;stroke-width:.86px" transform="matrix(-.17546 0 0 .17546 1452.1 2546.01)"/><path d="m349.281 2189.9 44.823.13.253 2.27s-19.949-3.15-15.783 15.66c-3.03.51-12.247.25-12.247.25-.182.36 6.686-16.84-16.919-16.16-.253-2.4-.127-2.15-.127-2.15Z" style="fill:#eaebe6;stroke:#000;stroke-width:.86px" transform="matrix(-.17546 0 0 .17546 1452.1 2546.01)"/><path d="m331.711 2268.18 13.637 3.23.202 50.3-13.435-3.94-.404-49.59Z" style="fill:#0e1a18;stroke:#000;stroke-width:.86px" transform="matrix(-.17546 0 0 .17546 1452.1 2546.01)"/><path d="m335.348 2335.85 6.969 3.54-.505 2.83-6.767-2.23.303-4.14Z" style="fill:#1c1e1b;stroke:#000;stroke-width:.86px" transform="matrix(-.17546 0 0 .17546 1452.1 2546.01)"/><path d="M337.368 2246.46s-13.03 7.37.303 19.8c9.091-7.38 8.182-18.69-.303-19.8Z" style="fill:#5a5e2b;stroke:#000;stroke-width:.86px" transform="matrix(-.17546 0 0 .17546 1452.1 2546.01)"/><path d="m339.691 2328.08.505 5.25 4.849.81.202-4.04-5.556-2.02ZM332.924 2326.36l5.151 2.73v4.44l-4.646-2.02-.505-5.15Z" style="fill:#1c1e1b;stroke:#000;stroke-width:.86px" transform="matrix(-.17546 0 0 .17546 1452.1 2546.01)"/><path d="m361.15 2155.69.253 15.53 21.59-.25v-15.79l-21.843.51Z" style="fill:#3f4042;stroke:#000;stroke-width:.86px" transform="matrix(-.17546 0 0 .17546 1452.1 2546.01)"/><path d="M375.67 2219.52s-4.748 2.53.303 3.64c8.081-.21 16.464-1.22 16.464-1.22v-2.32l-16.767-.1Z" style="fill:#21211d;stroke:#000;stroke-width:.86px" transform="matrix(-.17546 0 0 .17546 1452.1 2546.01)"/></g><path d="M1379.46 2936.36c.08-.01 0 0 0 0Zm4.25-11.51.2-5.15-16.26.1-.41 5.65s-11.61 5.96-9.49 15.46c.3 11.11-.81 21.61 7.07 21.82 8.99.2 27.98 4.14 28.99-15.26-2.43-3.63-10.71-3.13-14.75-2.22-.81-1.92-.3-5.15.4-8.89" style="fill:#dec9a8;stroke:#000;stroke-width:.15px"/></g><g id="mano1"><path d="M1379.33 2936.22s-1.08 7.97-.26 8.8c.83.82 6.57-1.97 11.28-.06.26-5.27.67-17.74.67-17.74s.72-2.22-7.29-2.74m0 0h0Z" style="fill:#dec9a8;stroke:#000;stroke-width:.15px" transform="matrix(-1 0 0 1 2854.26 -3.083)"/><path d="M1379.46 2936.36c.08-.01 0 0 0 0Zm4.25-11.51.2-5.15-16.26.1-.41 5.65s-11.61 5.96-9.49 15.46c.3 11.11-.81 21.61 7.07 21.82 8.99.2 27.98 4.14 28.99-15.26-2.43-3.63-10.71-3.13-14.75-2.22-.81-1.92-.3-5.15.4-8.89" style="fill:#dec9a8;stroke:#000;stroke-width:.15px" transform="matrix(-1 0 0 1 2854.26 -3.083)"/></g></g><g id="cabeza"><g id="cara"><path id="cabeza1" d="M1357.9 2754.77s1.59 76.77 13.46 92.8c11.87 16.03 16.23 24.8 23.35 28.69 8.7 6.07 96.91 13.59 102.89-35.68-.16-50.06-.55-85.68-.55-85.68l-139.15-.13Z" style="fill:#dec9a8;stroke:#000;stroke-width:.3px"/><path d="M1415.95 2782.86c-.06-9.15 17.77-5.52 17.77-5.52l.06 3.89s-13.61-4.73-17.83 1.63Z" style="stroke:#000;stroke-width:.13px" transform="translate(-265.253 -516.02) scale(1.18584)" id="ceja"/><path d="M1446.11 2821.7s2.67-7.02 9.65.44c-4.69.62-9.65-.44-9.65-.44Z" style="fill:#202020;stroke:#000;stroke-width:.15px"/><path d="M1415.95 2782.86c-.06-9.15 17.77-5.52 17.77-5.52l.06 3.89s-13.61-4.73-17.83 1.63Z" style="stroke:#000;stroke-width:.13px" transform="matrix(-1.18584 0 0 1.18584 3162.56 -515.533)" id="ceja1"/><path d="M1437.78 2834.49c4.52-2.33 26.14-2.75 28.84.21-1.81-4.46-9.08-9.02-14.94-8.71-5.86.31-12.19 5.44-13.9 8.5Z" style="fill:#010101;stroke:#000;stroke-width:.15px"/><path d="m1444.83 2858.14 15.1-.06-2.85 7.26-1.55 3.95-2.99-4.21-4.02 4.47-3.69-11.41Z" style="stroke:#000;stroke-width:.4px" transform="matrix(.75648 0 0 .75648 354.281 695.907)"/><path d="m1446.24 2794.91 12.87 16.82s8.5 5.94-3.96 8.12c-5.54-4.56-6.73-3.17-8.71-.99-1.98 2.17 8.71.99 8.71.99" style="fill:none;stroke:#000;stroke-width:.28px" transform="translate(-132.467 -256.005) scale(1.0916)" id="nariz"/><g id="oreja" transform="translate(-1102.55 -2226.76) scale(1.78182)"><path d="M1398.28 2813.91c-4.2-4.46-9.86-5.76-11.77.21.62 6.74 2.28 11.31 5.6 13.69 3.68 1.09 4.04-.05 4.04-1.66" style="fill:none"/><clipPath id="_clip1"><path d="M1398.28 2813.91c-4.2-4.46-9.86-5.76-11.77.21.62 6.74 2.28 11.31 5.6 13.69 3.68 1.09 4.04-.05 4.04-1.66"/></clipPath><g clip-path="url('#_clip1')"><path d="M1377.96 2790.98c-1.5 4.62-2.38 6.12-.1 7.88 1.97 1.56 1.97-.51 2.54-1.19" style="fill:none;stroke:#000;stroke-width:.21px" transform="matrix(.79626 0 0 .79626 294.913 593.848)"/><path d="M1373.29 2792.74c2.81-3.42 8.04-1.45 9.24-.26" style="fill:none;stroke:#000;stroke-width:.3px" transform="matrix(.56122 0 0 .56122 618.778 1249.71)"/><path d="m1378.68 2821.67 4.1 4.1-3.84 3.83-3.71-3.71 3.45-4.22Z" style="fill:#e1dada;stroke:#000;stroke-width:.21px" transform="matrix(.40841 0 0 .40841 831.11 1672.64)"/></g><path d="M1398.28 2813.91c-4.2-4.46-9.86-5.76-11.77.21.62 6.74 2.28 11.31 5.6 13.69 3.68 1.09 4.04-.05 4.04-1.66" style="fill:none;stroke:#000;stroke-width:.17px"/></g><g id="ojo" transform="translate(45.97 .843)"><path d="m1416.83 2793.81.24 15.88 17.34-.13-.2-16.08-17.38.33Z" style="fill:#faf9f9;stroke:#000;stroke-width:.3px"/><g id="pupila" transform="matrix(.85986 0 0 .85986 202.012 386.002)"><path d="M1419.44 2809.56c-1.09-6.19 8.5-13.57 11.74.13-2.31 10.66-10.02 9.59-11.74-.13Z" style="fill:#887918"/><clipPath id="_clip2"><path d="M1419.44 2809.56c-1.09-6.19 8.5-13.57 11.74.13-2.31 10.66-10.02 9.59-11.74-.13Z"/></clipPath><g clip-path="url('#_clip2')"><ellipse cx="1427.78" cy="2803.56" rx="2.229" ry="2.999" style="stroke:#000;stroke-width:.3px" transform="translate(-234.841 -450.892) scale(1.16298)"/></g><path d="M1419.44 2809.56c-1.09-6.19 8.5-13.57 11.74.13-2.31 10.66-10.02 9.59-11.74-.13Z" style="fill:none;stroke:#000;stroke-width:.18px"/></g><path d="M1416.84 2793.74s-.13-5.18 0-5.18 8.62-14.98 17.44.39c-.07 3.89-.07 4.47-.07 4.47l-17.37.32Z" style="fill:#e5d898;stroke:#000;stroke-width:.3px"/></g><g id="ojo1" transform="translate(.262 .25)"><path d="m1416.83 2793.81.24 15.88 17.34-.13-.2-16.08-17.38.33Z" style="fill:#faf9f9;stroke:#000;stroke-width:.3px"/><g id="pupila1" transform="matrix(.85986 0 0 .85986 202.012 386.002)"><path d="M1419.44 2809.56c-1.09-6.19 8.5-13.57 11.74.13-2.31 10.66-10.02 9.59-11.74-.13Z" style="fill:#887918"/><clipPath id="_clip3"><path d="M1419.44 2809.56c-1.09-6.19 8.5-13.57 11.74.13-2.31 10.66-10.02 9.59-11.74-.13Z"/></clipPath><g clip-path="url('#_clip3')"><ellipse cx="1427.78" cy="2803.56" rx="2.229" ry="2.999" style="stroke:#000;stroke-width:.3px" transform="translate(-234.841 -450.892) scale(1.16298)"/></g><path d="M1419.44 2809.56c-1.09-6.19 8.5-13.57 11.74.13-2.31 10.66-10.02 9.59-11.74-.13Z" style="fill:none;stroke:#000;stroke-width:.18px"/></g><path d="M1416.84 2793.74s-.13-5.18 0-5.18 8.62-14.98 17.44.39c-.07 3.89-.07 4.47-.07 4.47l-17.37.32Z" style="fill:#e5d898;stroke:#000;stroke-width:.3px"/></g><path d="m1358.08 2755.15.97 17.68 22.69 1.29c30.64-.52 43.71-6.49 60.41-5.95v-12.93l-84.07-.09Z" style="fill:#030303;stroke:#000;stroke-width:.15px" transform="matrix(1.00492 0 0 1 -6.988 -.464)"/><g id="boca"><path d="M1436.24 2834.41c2.34-11.81 14.31-1.14 17.22-1.01 2.92.13 10.39-10.26 14.19.5 2.2 6.25-6.21 8.74-13.93 8.49-7.73-.25-18.95-.57-17.48-7.98Z" style="fill:#cf7f7f;stroke:#000;stroke-width:.3px" transform="translate(.966 6.28)"/><path d="M1468.28 2835.42c-6.26 1.91-22.14.19-31.53 0" style="fill:#cf7f7f;stroke:#000;stroke-width:.3px" transform="translate(.966 6.28)"/></g></g><g id="gorra"><path d="m1496.92 2754.99-76.16.08s59.4 38.08 76.39 41.03c18.71 9.02 66.07-18.34-.23-41.11ZM1357.86 2754.83c31.53-.09 139.05 0 139.05 0s-4.38-32.68-29.42-34.47c-24.64-.4-70.75.4-70.75.4s-39.81-.22-38.88 34.07ZM1420.32 2720.34s-3.8-5.37 3.1-7.54c7.16 1.41 4.66 7.49 4.66 7.49l-7.76.05Z" style="fill:#2b3b64;stroke:#000;stroke-width:.3px"/><g id="letras_gorra"><path d="M1075.91 2168.9v39.7h36.25V2198h-24.9v-29.59l-11.35.49Z" style="fill:#fff;stroke:#fff;stroke-width:.57px" transform="matrix(.26672 0 0 .26672 1172.79 2156.46)"/><path d="M1032.43 2167.91s.99 33.05.74 42.91c46.86 1.98 48.83-27.86-.74-42.91Z" style="fill:#fff;stroke:#fff;stroke-width:.57px" transform="matrix(.26672 0 0 .26672 1172.79 2156.46)"/><path d="M1032.43 2167.91s.99 33.05.74 42.91c46.86 1.98 48.83-27.86-.74-42.91Z" style="fill:#2b3b64;stroke:#121011;stroke-width:1.41px" transform="matrix(.10698 0 0 .10698 1340.603 2506.579)"/><path d="M970.672 2211.85v-44.39l25.45 15.39 23.358-14.45v42.35h-8.04v-24.5l-15.532 8.59-17.424-8.84v25.63l-7.812.22ZM1122.52 2207.37v-39.21s46.12 0 18 21.7c19.73 16.28 20.72 17.02 20.72 17.02h-17.02l-11.34-12.83v12.83l-10.36.49Z" style="fill:#fff;stroke:#fff;stroke-width:.57px" transform="matrix(.26672 0 0 .26672 1172.79 2156.46)"/><path d="M1032.43 2167.91s.99 33.05.74 42.91c46.86 1.98 48.83-27.86-.74-42.91Z" style="fill:#2b3b64;stroke:#121011;stroke-width:1.94px" transform="rotate(.466 -921158.254 514769.684) scale(.07776)"/></g></g></g><path d="M1007.89 2778.93v13.49l5.3.48v88.63l21.19-.49-1.44-101.14-25.05-.97Z" style="fill:#040404;fill-opacity:.13;stroke:#474647;stroke-opacity:0;stroke-width:.42px" transform="matrix(.36296 0 0 .36296 1059.9 1942.21)"/><path d="M842.015 2452.19s12.27 38.16 16.105 42.22c3.835 4.44 43.523 64.55 62.018 76.89 22.273 14.25 95.832 16.43 92.282 13.48-7.93 2.65-157.752-94.31-170.405-132.59Z" style="fill:#c49f64;fill-opacity:.37;stroke:#474647;stroke-opacity:0;stroke-width:.42px" transform="matrix(.36296 0 0 .36296 1059.9 1942.21)"/><path d="M983.844 2913.51s-9.031-1.21-1.806 13.85c7.225 15.05 16.256 17.46 16.256 17.46 20.366.65 20.366-8.89-4.215-30.71l-10.235-.6Z" style="fill:#1a1919;fill-opacity:.5;stroke:#474647;stroke-opacity:0;stroke-width:.42px" transform="matrix(.36296 0 0 .36296 1059.9 1942.21)"/><path d="M983.844 2913.51s-9.031-1.21-1.806 13.85c7.225 15.05 16.256 17.46 16.256 17.46 20.366.65 20.366-8.89-4.215-30.71l-10.235-.6Z" style="fill-opacity:.36;stroke:#474647;stroke-opacity:0;stroke-width:.42px" transform="matrix(.36296 0 0 .36296 1101.64 1940.89)"/></g></g></svg>